<svg width="74" height="36" viewBox="0 0 74 36" fill="none" xmlns="http://www.w3.org/2000/svg">
<path d="M9.23859 0.312966C9.01871 0.575406 4.85936 8.43219 4.40128 9.49835C4.30967 9.67878 5.06091 10.2365 6.9482 11.3518C8.39573 12.2212 9.73332 12.9429 9.89823 12.9429C10.0631 12.9429 11.4007 12.2212 12.8483 11.3518C14.7355 10.2365 15.4685 9.69518 15.3952 9.49835C14.9371 8.43219 10.7961 0.575406 10.5579 0.312966C10.393 0.148941 10.0815 0.00133514 9.89823 0.00133514C9.71499 -0.0150671 9.4035 0.132539 9.23859 0.312966Z" fill="white"/>
<path d="M2.66061 12.7789C2.34912 13.4186 1.61619 14.8456 1.02985 15.961C-0.0695381 18.0769 -0.234446 18.6674 0.278602 18.6674C0.828296 18.6674 7.58954 14.5175 7.60786 14.1895C7.60786 13.845 4.14478 11.6307 3.57677 11.6307C3.39354 11.6471 3.02707 12.09 2.66061 12.7789Z" fill="white"/>
<path d="M13.9843 12.7625C12.8666 13.435 12.1703 13.9763 12.1703 14.1895C12.1886 14.5175 18.9499 18.6674 19.4995 18.6674C20.0492 18.6674 19.8294 18.0605 18.1986 14.862C16.971 12.5328 16.4579 11.7127 16.1831 11.6963C15.9632 11.6799 14.9737 12.1556 13.9843 12.7625Z" fill="white"/>
<path d="M7.88265 16.4039C6.28854 17.388 5.86711 17.9129 6.38015 18.1917C6.50842 18.2409 6.58171 19.0118 6.58171 19.8812C6.58171 22.2431 6.47177 22.1775 9.87987 22.1775C13.288 22.1775 13.178 22.2595 13.178 19.8812C13.178 19.0118 13.288 18.2573 13.3796 18.1917C13.8926 17.8965 13.4712 17.3716 11.8038 16.3874C10.851 15.8133 9.95317 15.3377 9.80658 15.3541C9.71497 15.3541 8.81713 15.8298 7.88265 16.4039Z" fill="white"/>
<path d="M5.8488 23.9327C5.50066 24.4083 5.57395 24.9496 6.10532 25.4089C6.58173 25.8189 13.233 25.8189 13.7094 25.4089C14.2225 24.9496 14.3141 24.4083 13.966 23.9327C13.6361 23.4734 13.6361 23.4734 9.91654 23.4734C6.19694 23.4734 6.17862 23.4734 5.8488 23.9327Z" fill="white"/>
<path d="M5.99544 27.2788C5.44574 27.9021 5.46407 28.1973 6.08705 28.7386C6.58178 29.1815 6.63675 29.1979 9.91659 29.1979C13.1964 29.1979 13.2331 29.1815 13.7461 28.7386C14.3691 28.1973 14.3874 27.9021 13.8377 27.2788L13.4163 26.8031H9.89827H6.39855L5.99544 27.2788Z" fill="white"/>
<path d="M9.03705 30.5428C8.76221 30.6412 8.48736 30.8053 8.39574 30.9365C8.30413 31.0677 8.23083 32.0847 8.23083 33.2328C8.23083 35.1519 8.24916 35.3159 8.68891 35.5784C9.29358 35.9556 10.4846 35.9556 11.0892 35.5784C11.529 35.3159 11.5473 35.1519 11.5473 33.2C11.5473 31.5434 11.4924 31.0349 11.2175 30.8217C11.0526 30.6576 10.7778 30.5264 10.6678 30.51C10.5212 30.51 10.2097 30.4772 9.98986 30.4608C9.73333 30.4116 9.3119 30.4444 9.03705 30.5428Z" fill="white"/>
<path d="M28.3295 7.5731C27.7838 7.73288 27.624 10.4891 27.624 18.6116V29.3839L28.9285 29.7034C31.0982 30.2494 31.4176 29.597 31.4176 24.9898V20.7154H35.4241C40.2426 20.7154 41.1613 20.4492 41.1613 18.8779C41.1613 16.8806 40.1363 16.3879 35.6373 16.3879H31.4176V14.6037C31.4176 11.621 31.5772 11.5677 40.6153 11.4079L49.0012 11.2481V9.3573V7.46647L38.9915 7.35997C33.4675 7.30671 28.649 7.41331 28.3295 7.5731Z" fill="white"/>
<path d="M26.7053 7.22679C26.1596 7.38658 26 10.1428 26 18.2653V29.0376L27.3043 29.3573C29.474 29.9032 29.7936 29.2507 29.7936 24.6435V20.3693H33.8001C38.6187 20.3693 39.5371 20.1028 39.5371 18.5316C39.5371 16.5343 38.5121 16.0417 34.013 16.0417H29.7936V14.2574C29.7936 11.2747 29.9533 11.2214 38.9914 11.0616L47.3772 10.9018V9.011V7.12029L37.3675 7.01367C31.8435 6.9604 27.0248 7.067 26.7053 7.22679Z" fill="#771712"/>
<path d="M52.2154 8.3853C52.0556 8.82471 52.0025 13.5783 52.0557 19.051C52.2155 27.8126 52.322 29.0643 53.1872 29.5969C55.0241 30.782 55.9957 29.3839 56.2752 25.0031L56.5414 20.9952L60.6012 20.7288L64.661 20.4625L64.8209 18.7315C65.0339 16.7342 64.5546 16.5078 59.5231 16.2948L56.5414 16.135L56.2752 12.0737L56.009 8.01249L54.2255 7.85268C53.134 7.73284 52.3751 7.94589 52.2154 8.3853Z" fill="white"/>
<path d="M70.0654 8.38519C69.9056 8.8246 69.8522 13.5782 69.9055 19.0509C70.0652 27.8125 70.1717 29.0642 71.0369 29.5968C71.6891 30.0362 72.2217 30.0362 72.9272 29.5968C73.7392 29.0509 73.8454 27.9191 73.8454 18.505V8.01238L72.062 7.85257C70.9838 7.73273 70.2251 7.94578 70.0654 8.38519Z" fill="white"/>
</svg>
