<svg width="39" height="71" viewBox="0 0 39 71" fill="none" xmlns="http://www.w3.org/2000/svg">
<path d="M1.52187 0.180342C0.36249 0.692398 0.000183105 1.34285 0.000183105 2.89285C0.000183105 7.91654 3.02907 13.0648 8.15934 16.7322C10.1448 18.1577 9.99986 18.1161 11.1882 17.4934C11.7534 17.2027 12.9853 16.6353 13.9273 16.234L15.6518 15.5143L14.1591 14.684C9.07235 11.8192 6.05796 8.34556 5.27537 4.44286C5.15944 3.87545 5.07248 3.08661 5.07248 2.6991C5.07248 1.9241 4.71017 1.02454 4.26091 0.637041C3.52181 0.0142708 2.33344 -0.17948 1.52187 0.180342Z" fill="white"/>
<path d="M34.6948 0.235687C33.6223 0.706225 33.2745 1.38435 33.1296 3.22498C32.9267 6.02053 31.5934 8.65001 29.1732 10.9889C26.4776 13.6045 22.9705 15.5835 18.1156 17.2719C11.2752 19.6246 6.05801 22.9461 3.00014 26.8764C1.9567 28.2327 0.826299 30.4055 0.420515 31.8724C-0.0432376 33.5332 -0.115699 36.4394 0.2611 38.1693C1.60888 44.3832 7.88404 49.9189 17.333 53.2542C23.0575 55.2609 26.3327 57.0739 29.1587 59.8002C31.6514 62.2083 33.1731 65.336 33.1876 68.1039C33.2021 70.2766 35.4194 71.5498 37.1729 70.4012C37.999 69.8614 38.2599 69.2387 38.2599 67.8824C38.2599 61.3779 33.4484 55.2056 25.1878 51.1091C23.5067 50.2926 21.8401 49.6283 18.7677 48.5489C17.0432 47.9538 13.5505 46.2654 12.0288 45.2828C5.08703 40.8542 3.23202 35.2492 6.95653 30.0041C8.98545 27.1532 13.7969 23.9978 18.7677 22.2541C24.811 20.1367 28.3182 18.3099 31.5934 15.5558C35.8541 11.9853 38.2599 7.41831 38.2599 2.90668C38.2599 1.89641 38.2019 1.6473 37.8976 1.13525C37.2599 0.0972952 35.9121 -0.290208 34.6948 0.235687Z" fill="white"/>
<path d="M7.72456 3.39108C7.76803 3.91697 7.85499 4.44287 7.89846 4.56742C7.99991 4.80269 8.66656 4.81653 19.13 4.81653C29.5934 4.81653 30.2601 4.80269 30.3615 4.56742C30.405 4.44287 30.4919 3.91697 30.5354 3.39108L30.6224 2.46384L19.13 2.46384L7.6376 2.46384L7.72456 3.39108Z" fill="white"/>
<path d="M10.5361 8.91296C10.6665 9.10671 11.2317 9.64644 11.7969 10.0893L12.8114 10.9058H19.159L25.5066 10.9058L26.55 10.0339C27.1152 9.56341 27.6804 9.03751 27.7964 8.8576L27.9993 8.55313L19.1445 8.55313H10.2897L10.5361 8.91296Z" fill="white"/>
<path d="M26.4486 21.7835C25.4921 22.2679 24.2747 22.8353 23.7385 23.0429C23.1878 23.2505 22.7531 23.4581 22.7531 23.4996C22.7531 23.5411 23.2313 23.8179 23.811 24.1085C26.4051 25.451 28.8398 27.2362 30.4629 29.0077C33.2889 32.08 33.9411 35.8443 32.2455 39.2211C30.9557 41.7952 28.2456 44.2448 24.4631 46.3069C23.5211 46.8189 22.7675 47.2618 22.7531 47.3033C22.7531 47.3448 23.0574 47.4832 23.4487 47.6354C23.8255 47.7738 25.0573 48.3412 26.1877 48.8948L28.2456 49.9051L29.3036 49.2131C33.8252 46.2515 36.7816 42.6671 37.854 38.8613C38.1439 37.8372 38.1873 37.3666 38.1728 35.3323C38.1583 32.5505 37.941 31.568 36.8251 29.3813C35.5208 26.8487 33.3614 24.4684 30.4774 22.4063C28.1007 20.7041 28.4775 20.7594 26.4486 21.7835Z" fill="white"/>
<path d="M12.1592 28.4126C11.8839 28.6064 11.2462 29.1599 10.739 29.6305L9.79697 30.4885L14.4635 30.53C17.0286 30.5439 21.2314 30.5439 23.7965 30.53L28.4775 30.4885L27.608 29.672C27.1297 29.2153 26.4776 28.6756 26.1732 28.4541L25.608 28.0666H19.13H12.6664L12.1592 28.4126Z" fill="white"/>
<path d="M7.68106 35.4015V36.647L19.101 36.6194L30.5064 36.5778V35.4015V34.2251L19.101 34.1836L7.68106 34.156V35.4015Z" fill="white"/>
<path d="M10.1013 40.5635C10.4056 40.9234 11.623 41.989 12.2316 42.4319C12.6519 42.7363 12.6809 42.7363 19.13 42.7363C26.4921 42.7363 25.5066 42.8886 27.2891 41.4493C28.9123 40.1345 29.7093 40.2452 19.13 40.2452H9.84042L10.1013 40.5635Z" fill="white"/>
<path d="M8.95629 53.5033C3.27532 57.3368 6.10352e-05 62.5958 6.10352e-05 67.8963C6.10352e-05 68.9065 0.0580302 69.1556 0.362368 69.6677C0.768152 70.3181 1.66667 70.8302 2.43476 70.8302C2.98547 70.8302 3.84052 70.5119 4.26079 70.1659C4.69556 69.7922 5.07236 68.8789 5.07236 68.1315C5.10134 63.6337 8.59398 59.0944 14.4634 55.9391L15.6662 55.3024L13.7967 54.5136C12.7823 54.0707 11.5794 53.5172 11.1301 53.2819C10.6954 53.0328 10.2316 52.839 10.1302 52.839C10.0142 52.8529 9.4925 53.1435 8.95629 53.5033Z" fill="white"/>
<path d="M11.7969 60.7136C11.2317 61.1565 10.6665 61.6962 10.5361 61.89L10.2897 62.2498H19.1445H27.9993L27.7964 61.9315C27.6804 61.7654 27.1152 61.2395 26.55 60.7552L25.5066 59.8971H19.159H12.8114L11.7969 60.7136Z" fill="white"/>
<path d="M7.89846 66.2217C7.85499 66.3601 7.76803 66.886 7.72456 67.398L7.6376 68.3391H19.13H30.6224L30.5354 67.398C30.4919 66.886 30.405 66.3601 30.3615 66.2217C30.2601 66.0003 29.5934 65.9864 19.13 65.9864C8.66656 65.9864 7.99991 66.0003 7.89846 66.2217Z" fill="white"/>
</svg>
