<svg width="77" height="71" viewBox="0 0 77 71" fill="none" xmlns="http://www.w3.org/2000/svg">
<path d="M2.23899 1.37514C1.80484 2.27579 1.5204 3.03349 1.56531 3.19074C1.6252 3.33371 1.53537 3.50526 1.3707 3.63393C1.20602 3.734 0.936549 4.0914 0.756901 4.42021C0.577254 4.76332 0.337724 5.03495 0.217959 5.03495C-0.021571 5.03495 -0.0814535 5.33517 0.128135 5.53532C0.337724 5.76405 1.10123 8.08002 1.07128 8.42313C1.05631 8.58039 1.14614 8.75195 1.25093 8.79483C1.53537 8.89491 1.71502 9.73838 1.50543 9.93853C1.29584 10.1387 1.58029 10.4675 1.99946 10.4818C2.31385 10.4818 2.31385 10.4818 1.98449 10.6104C1.5204 10.7963 1.49046 11.5969 1.93958 11.7112C2.32882 11.8113 2.31385 11.9543 1.90964 12.2402C1.56531 12.4546 1.56531 12.4689 1.84976 12.6834C2.14917 12.8978 2.14917 12.8978 1.84976 13.1123C1.56531 13.3267 1.56531 13.3267 1.84976 13.5412C2.11923 13.727 2.11923 13.97 2.05935 18.6449C2.01443 21.3468 2.04437 24.1775 2.10426 24.9495C2.20905 26.2075 2.19408 26.3934 1.93958 26.808C1.50543 27.4942 1.55034 28.3234 2.05935 28.9524C2.47852 29.4528 2.47852 29.4956 2.74799 33.084C2.98752 36.3149 3.00249 37.6159 2.88273 45.3501C2.79291 51.4831 2.80788 56.0722 2.92764 61.1473C3.03244 65.0787 3.12226 68.5956 3.12226 68.9673L3.13723 69.6535H3.87079H4.60435L4.54447 68.7528C4.31991 65.1073 4.18517 51.7976 4.30494 44.4208C4.4247 36.9582 4.40973 35.6287 4.18517 32.9124C4.05044 31.2255 3.96061 29.7959 3.97558 29.753C4.00553 29.7101 6.55053 30.0246 9.63448 30.4392L15.2485 31.2255L15.8173 30.9538C16.3413 30.7108 16.521 30.4392 18.4222 26.8509L20.4582 22.9909L20.563 23.8487C20.6229 24.3061 20.7127 24.9924 20.7577 25.3641L20.8475 26.0503L22.2547 26.4792C23.0332 26.7222 24.1859 26.9938 24.8147 27.1082L25.9674 27.294L25.0093 27.4084C24.4853 27.4656 23.3775 27.4656 22.5242 27.4084L20.9972 27.3083L21.072 28.0803C21.102 28.4949 21.1918 28.9381 21.2667 29.0668C21.4014 29.3241 23.7218 30.0246 24.8446 30.1533C25.2638 30.1962 25.5932 30.2962 25.5932 30.3677C25.5932 30.4535 24.7698 30.4964 23.4973 30.4535L21.4014 30.4106V30.768C21.4014 30.9681 21.4463 31.3541 21.4912 31.6401C21.581 32.1547 21.596 32.169 22.9284 32.555C23.6769 32.7695 24.5752 32.9839 24.9345 33.0268C25.2937 33.0554 25.5932 33.1555 25.5932 33.2269C25.5932 33.3127 24.8446 33.3556 23.647 33.327L21.7008 33.2698L21.7906 34.1276C21.8505 34.5994 21.9254 35.0283 21.9852 35.0711C22.0302 35.114 23.4074 35.2713 25.0392 35.4142C27.8687 35.6573 28.1082 35.6573 30.9077 35.4C32.5096 35.2713 33.8869 35.114 33.9767 35.0568C34.0516 35.014 34.1713 34.5851 34.2162 34.1133L34.3061 33.2698L32.3449 33.3127C31.1772 33.3413 30.3838 33.3127 30.3838 33.2269C30.3838 33.1555 30.6682 33.0554 31.0275 33.0268C32.0156 32.9124 34.1114 32.3263 34.3659 32.0975C34.5456 31.926 34.6654 30.8538 34.5456 30.5393C34.5157 30.4821 33.5725 30.4535 32.4497 30.4678C31.3119 30.4821 30.3838 30.4535 30.3838 30.382C30.3838 30.3105 30.8778 30.1819 31.4766 30.0961C32.4198 29.9388 34.6504 29.3241 34.7851 29.1811C34.8151 29.1525 34.8749 28.7237 34.9348 28.2233L35.0396 27.3226L33.4827 27.4227C32.6144 27.4656 31.5215 27.4656 31.0425 27.4084L30.1592 27.294L31.2071 27.1225C32.3 26.9366 34.6504 26.2933 35.0097 26.0646C35.1294 25.9931 35.2792 25.4069 35.3839 24.5349L35.5486 23.1339L37.4798 27.1654L39.411 31.1969L40.429 36.9582C40.983 40.1177 41.5219 42.9483 41.6117 43.2342C41.8363 43.9633 42.5249 44.4923 43.2735 44.4923C44.3963 44.4923 45.2047 43.7918 45.2047 42.8196C45.2047 42.6052 44.7106 39.6459 44.1118 36.272L43.019 30.1247L40.2644 24.4062C38.7673 21.2611 37.3301 18.4733 37.1056 18.216C36.866 17.9587 36.6714 17.6727 36.6714 17.5727C36.6714 17.4726 36.4618 17.1152 36.2073 16.7578C35.6085 15.9143 35.1294 15.028 35.2193 14.9422C35.2642 14.9136 35.5786 15.1423 35.9079 15.4568C36.4918 16.0144 36.9708 16.2145 36.9708 15.9C36.9708 15.8285 36.8361 15.6999 36.6714 15.6141C36.5217 15.5283 36.2073 15.2424 35.9977 14.9851C35.6235 14.5133 35.6085 14.4275 35.5636 12.0829C35.4588 7.0507 35.1744 6.00709 33.6773 5.02065C31.6563 3.67681 29.5903 3.7197 28.3178 5.10643L27.8687 5.5782L27.3747 5.07784C26.6261 4.33443 25.8926 4.03422 24.8895 4.03422C23.3326 4.03422 21.3415 5.17791 20.7876 6.40738C20.4133 7.19366 20.1439 9.75267 20.1289 12.4546V14.6562L19.4103 15.2567C19.0211 15.5998 18.7067 15.9143 18.7067 15.9572C18.7067 16.2145 19.2756 15.9715 19.7846 15.4711C20.1139 15.1566 20.4133 14.8993 20.4433 14.8993C20.6379 14.8993 20.4133 15.3997 19.8744 16.2002C19.5301 16.7006 19.1708 17.301 19.0809 17.5441C18.9911 17.7728 17.7935 20.1031 16.4311 22.705L13.931 27.437L9.02068 26.7508C6.32597 26.3648 4.00553 26.0503 3.87079 26.0503C3.48155 26.0503 3.37676 23.8773 3.5115 18.3875L3.61629 13.6412L3.99056 13.5412C4.45464 13.4411 4.39476 12.9836 3.90073 12.9264L3.54144 12.8692L3.90073 12.6977C4.36482 12.4832 4.36482 12.1544 3.88576 12.0258L3.5115 11.94L3.88576 11.8828C4.31991 11.8113 4.49956 11.3252 4.09535 11.3252C3.87079 11.3252 3.85582 11.2967 4.06541 11.0679C4.31991 10.782 4.37979 10.153 4.1702 10.0243C3.99056 9.92423 4.48459 8.72335 4.75406 8.5518C4.84388 8.49461 4.88879 8.36595 4.84388 8.25158C4.75406 8.02284 5.33791 6.35019 5.63732 6.02138C5.9068 5.72116 5.89182 5.32087 5.60738 5.32087C5.48762 5.32087 5.38282 5.22079 5.38282 5.10643C5.38282 4.99206 5.24809 4.77762 5.09838 4.64895C4.9337 4.52029 4.84388 4.34873 4.87382 4.26295C4.9337 4.12 3.52647 0.703217 3.1522 0.0598907C3.03244 -0.140251 2.85279 0.131371 2.23899 1.37514ZM3.6612 2.80475C3.99056 3.60533 4.20014 4.27725 4.14026 4.44881C4.08038 4.67754 4.15523 4.8205 4.40973 4.97776C5.02353 5.36376 4.9337 5.63538 4.00553 6.29301L3.13723 6.92204L2.08929 6.17864C1.5204 5.76405 1.04134 5.40665 1.04134 5.37806C1.04134 5.07784 1.72999 4.13429 2.0294 4.00562C2.35876 3.86266 2.40367 3.76259 2.32882 3.40519C2.23899 2.9906 2.76296 1.46091 2.98752 1.46091C3.04741 1.46091 3.34682 2.06135 3.6612 2.80475ZM26.4315 4.8205C27.0004 5.13503 27.6441 5.83553 27.5094 5.97849C27.4645 6.00709 27.18 5.90701 26.8657 5.74976C26.5363 5.5925 26.1471 5.46383 25.9674 5.46383C25.8027 5.46383 25.5333 5.36376 25.3836 5.24939C25.0093 4.97776 24.2308 4.97776 23.6021 5.23509C23.123 5.42094 21.3565 6.99352 20.9972 7.53677C20.8325 7.7941 20.8175 7.77981 20.8924 7.39381C21.1619 6.07857 22.1349 5.16361 23.8266 4.57747C24.7847 4.26295 25.5632 4.33443 26.4315 4.8205ZM32.3 4.70614C33.1084 5.02065 34.2462 5.86412 34.4857 6.3073C34.6055 6.52175 34.7402 6.95063 34.8001 7.25085L34.9049 7.8227L34.6055 7.39381C34.2013 6.80767 32.9737 5.70687 32.3299 5.33517C31.7311 4.99206 30.7431 4.93488 30.3089 5.23509C30.1442 5.33517 29.77 5.47813 29.4855 5.53532C29.2011 5.5925 28.7969 5.73546 28.6172 5.84983C28.0184 6.20723 28.0483 5.90701 28.6771 5.30657C29.7101 4.33443 30.8628 4.13429 32.3 4.70614ZM24.9943 5.46383C25.2937 5.64968 25.2039 5.69257 24.141 5.84983C23.153 5.99279 23.0482 5.86412 23.8566 5.52102C24.4105 5.29228 24.6949 5.27798 24.9943 5.46383ZM32.0006 5.6068C32.3449 5.74976 32.6294 5.90701 32.6294 5.9356C32.6294 6.00709 31.0125 5.77835 30.6832 5.66398C30.4886 5.6068 30.4886 5.5782 30.6832 5.46383C31.0125 5.26369 31.282 5.29228 32.0006 5.6068ZM26.7908 6.10716C27.0453 6.23582 27.2399 6.42167 27.2399 6.53604C27.2399 6.83626 27.0902 6.79337 26.4914 6.3216C25.9375 5.86412 26.0872 5.76405 26.7908 6.10716ZM29.6352 5.99279C29.6203 6.15005 28.5723 6.77908 28.4675 6.6933C28.3627 6.57893 28.752 6.16434 29.1113 6.03568C29.5005 5.87842 29.6352 5.86412 29.6352 5.99279ZM25.4884 6.3073C25.683 6.37878 25.8926 6.53604 25.9375 6.65041C25.9974 6.80767 25.8776 6.83626 25.3087 6.77908C24.8596 6.75048 24.3955 6.80767 24.0362 6.95063C23.2128 7.27944 23.2128 7.15078 24.0362 6.62182C24.7997 6.13575 24.9345 6.10716 25.4884 6.3073ZM31.6263 6.60752C32.4796 7.12218 32.5246 7.25085 31.776 6.93634C31.4167 6.80767 30.9526 6.75048 30.4886 6.79337C29.8897 6.83626 29.7849 6.80767 29.8149 6.63612C29.8598 6.43597 30.279 6.23582 30.773 6.19294C30.8478 6.17864 31.2371 6.36449 31.6263 6.60752ZM2.3887 7.32233C2.3887 7.4367 1.90964 7.75121 1.74496 7.75121C1.67011 7.75121 1.19105 6.50745 1.19105 6.35019C1.19105 6.3216 1.46052 6.50745 1.78987 6.75048C2.11923 6.99352 2.3887 7.26514 2.3887 7.32233ZM22.9434 7.09359C22.1799 7.90847 22.0152 7.90847 22.2996 7.12218C22.4044 6.79337 22.599 6.57893 22.8685 6.47886C23.647 6.20723 23.662 6.3359 22.9434 7.09359ZM32.8539 6.52175C33.1833 6.66471 33.4078 6.86485 33.4677 7.09359C33.6324 7.75121 33.4677 7.72262 32.7791 7.02211C32.0455 6.26442 32.0605 6.20723 32.8539 6.52175ZM4.48459 6.93634C4.48459 7.03641 4.39476 7.25085 4.275 7.40811C4.09535 7.62255 4.0205 7.63684 3.87079 7.50818C3.72108 7.36522 3.766 7.27944 4.05044 7.0507C4.48459 6.7076 4.48459 6.7076 4.48459 6.93634ZM29.1861 7.16507C29.0364 7.451 28.737 7.57966 28.737 7.36522C28.737 7.22226 29.231 6.73619 29.2909 6.80767C29.3358 6.83626 29.2909 7.00782 29.1861 7.16507ZM26.8507 7.12218C26.9854 7.46529 26.9555 7.52248 26.716 7.32233C26.4615 7.12218 26.4165 6.89345 26.6261 6.89345C26.701 6.89345 26.8058 6.99352 26.8507 7.12218ZM26.0273 7.451C26.2668 7.67973 26.4465 7.70833 27.1202 7.63684C27.5543 7.57966 28.243 7.56536 28.6472 7.62255C29.246 7.67973 29.4406 7.65114 29.6652 7.4367C29.9496 7.16507 31.0724 7.09359 31.6563 7.30803C31.9257 7.40811 31.8958 7.451 31.4018 7.65114C31.0874 7.77981 30.8329 7.90847 30.8329 7.95136C30.8329 7.99425 31.2521 8.02284 31.7611 7.99425L32.6892 7.96566L33.0485 8.59469L33.4228 9.20942L32.9886 8.95209L32.5545 8.69476L32.9437 9.12365C33.5426 9.75267 33.6773 10.0958 33.6773 10.8821C33.6773 11.3395 33.7372 11.6112 33.842 11.6112C34.0516 11.6112 33.9318 13.1838 33.6923 13.7556C33.5575 14.0844 33.5426 14.0558 33.5276 13.4697L33.5126 12.8263L33.2881 13.4697C33.1833 13.8271 33.0785 14.3846 33.0785 14.7277C33.0785 15.4854 33.4527 17.2724 33.7671 18.0015C33.9767 18.459 33.9767 18.5019 33.7821 18.359C33.4078 18.0587 32.9138 16.7864 32.794 15.8428C32.7042 15.0422 32.6743 14.9994 32.5096 15.2996C32.2401 15.7428 32.5096 17.0008 33.0785 18.0015C33.318 18.4447 33.4228 18.7592 33.333 18.7592C33.1234 18.7592 31.8808 16.9436 31.8808 16.6577C31.8808 16.4433 31.6413 16.4147 31.5066 16.6148C31.4167 16.7578 31.791 17.4869 32.3898 18.359C32.6593 18.7592 32.6593 18.7592 32.3449 18.7592C32.1353 18.7592 31.9706 18.6306 31.8659 18.3732C31.5814 17.6441 31.1024 17.0151 30.9526 17.1581C30.8478 17.2581 30.9377 17.5298 31.1922 17.9301C31.6563 18.6878 31.6712 18.7592 31.297 18.7592C31.1323 18.7592 30.9826 18.6306 30.9377 18.4304C30.8029 17.9587 30.4586 17.5584 30.249 17.6727C30.1293 17.7442 30.1442 17.8586 30.3089 18.0873C30.788 18.7307 30.6981 18.7592 27.8388 18.7592C26.3567 18.7592 25.144 18.7307 25.144 18.6878C25.144 18.6306 25.2488 18.4161 25.3686 18.1874C25.5033 17.9444 25.5333 17.7442 25.4584 17.687C25.2788 17.587 24.8446 18.1731 24.8446 18.5019C24.8446 18.6878 24.7249 18.7592 24.4554 18.7592H24.0811L24.4853 18.0444C24.7698 17.5298 24.8446 17.2724 24.7398 17.1724C24.6201 17.058 24.4554 17.2724 24.156 17.8872C23.8117 18.5448 23.647 18.7449 23.3925 18.7449C23.0781 18.7592 23.0931 18.7164 23.647 17.8729C23.9763 17.4011 24.2458 16.915 24.2458 16.815C24.2458 16.4576 23.9464 16.4576 23.7967 16.815C23.6021 17.3153 22.5841 18.7592 22.4344 18.7592C22.2547 18.7592 22.2397 18.8021 22.7338 17.8729C23.2278 16.9579 23.4673 15.6427 23.2278 15.2424C23.0931 15.0137 23.0631 15.0708 22.9733 15.5426C22.7637 16.7721 22.5691 17.444 22.2847 17.8872C21.8505 18.5734 21.8056 18.359 22.1649 17.3868C22.5841 16.2431 22.6889 14.2131 22.3894 13.2552L22.1499 12.5404L22.2397 13.3267C22.2996 13.97 22.2847 14.0844 22.12 13.9271C21.8655 13.6841 21.8804 10.8964 22.1349 10.1387C22.2397 9.83845 22.5092 9.39527 22.7188 9.13794C23.0332 8.78054 23.0482 8.73765 22.7787 8.95209C22.3445 9.30949 22.3445 9.02357 22.7637 8.36595L23.0931 7.86559L24.0811 7.95136C24.9794 8.03714 25.0392 8.02284 24.7847 7.8227C24.6201 7.70833 24.3656 7.60825 24.2159 7.60825C23.9015 7.60825 23.8566 7.37952 24.141 7.27944C24.2308 7.23655 24.635 7.19366 25.0392 7.19366C25.5483 7.17937 25.8177 7.25085 26.0273 7.451ZM21.7307 7.77981C21.7008 8.03714 21.5511 8.38025 21.4014 8.5375C21.2667 8.69476 21.072 8.95209 20.9822 9.10935C20.6529 9.68119 20.8026 8.99498 21.1918 8.1658C21.6409 7.22226 21.8355 7.09359 21.7307 7.77981ZM34.5007 8.06573C35.0097 9.09505 34.9648 9.35238 34.4258 8.63758C34.0366 8.12291 33.812 7.32233 34.0516 7.32233C34.0965 7.32233 34.3061 7.66544 34.5007 8.06573ZM3.57138 8.05143C3.9157 8.32306 3.9157 8.36595 3.73605 8.89491C3.54144 9.43816 3.5115 9.46675 2.91267 9.46675C2.32882 9.46675 2.2839 9.43816 2.1342 8.96639C1.96952 8.48032 1.98449 8.45173 2.50846 8.10862C3.16717 7.67973 3.12226 7.67973 3.57138 8.05143ZM21.6858 9.53823C21.611 9.92423 21.5062 10.6104 21.4313 11.0393L21.3116 11.8256L21.1169 11.0679C21.0122 10.6533 20.9672 10.1816 21.0122 9.99571C21.102 9.63831 21.6858 8.69476 21.7757 8.76624C21.8056 8.79483 21.7607 9.13794 21.6858 9.53823ZM34.5007 9.53823C34.7851 10.1101 34.8151 10.2959 34.6803 10.9107C34.6055 11.2967 34.4857 11.6112 34.4258 11.6112C34.3659 11.6112 34.2612 11.1823 34.2162 10.639C34.1564 10.1101 34.0665 9.45246 34.0216 9.18083C33.9168 8.56609 34.0516 8.68047 34.5007 9.53823ZM21.0122 12.6977C20.9672 12.8835 20.8624 13.0408 20.8026 13.0408C20.6229 13.0408 20.4582 11.9543 20.593 11.5826C20.6828 11.2824 20.7127 11.2967 20.8924 11.8113C21.0122 12.1115 21.0571 12.5118 21.0122 12.6977ZM35.0995 12.7263C35.0396 12.9836 34.9648 13.0408 34.845 12.9264C34.6354 12.7263 34.6504 12.2116 34.8899 11.6827L35.0845 11.2538L35.1444 11.8113C35.1744 12.1258 35.1594 12.5261 35.0995 12.7263ZM21.3565 13.8843C21.2517 15.0137 21.0271 15.3997 21.0421 14.4275C21.0571 13.6841 21.2068 13.0408 21.3565 13.0408C21.4014 13.0408 21.4014 13.4268 21.3565 13.8843ZM34.5905 13.3553C34.6953 14.1988 34.6803 15.0851 34.5755 14.885C34.351 14.499 34.2162 13.1838 34.4109 13.1838C34.5007 13.1838 34.5905 13.2695 34.5905 13.3553ZM21.9553 15.3425C21.8804 15.9429 20.9373 17.4869 20.8325 17.201C20.8026 17.1009 20.9972 16.429 21.2667 15.6856C21.6409 14.6705 21.8056 14.3846 21.8954 14.5562C21.9703 14.6848 22.0002 15.0422 21.9553 15.3425ZM34.321 15.3282C34.83 16.5862 35.0696 17.3296 34.9797 17.4154C34.8749 17.5155 33.9767 16.1288 33.827 15.6141C33.7072 15.2424 33.7821 14.2274 33.9019 14.356C33.9318 14.3846 34.1114 14.8135 34.321 15.3282ZM36.0576 17.2153C36.372 17.7299 36.372 17.7585 36.1175 17.7585C35.9528 17.7585 35.7432 17.5727 35.5935 17.2867C35.369 16.8579 35.0247 15.9572 35.0247 15.7714C35.0247 15.6856 35.5337 16.4004 36.0576 17.2153ZM20.3534 16.815C20.1738 17.2581 19.9043 17.687 19.7396 17.7585C19.545 17.8729 19.4552 17.8586 19.4552 17.7442C19.4552 17.5441 20.5331 15.8714 20.6079 15.9572C20.6379 15.9858 20.5181 16.3718 20.3534 16.815ZM21.7607 17.3725C21.5062 18.1016 21.2966 18.3161 21.1619 18.0015C21.087 17.8014 21.8206 16.5433 21.9403 16.6577C21.9703 16.6863 21.8954 17.0151 21.7607 17.3725ZM34.336 17.3439C34.7103 17.8729 34.7702 18.3304 34.4558 18.3304C34.3959 18.3304 34.2162 18.0301 34.0815 17.6441C33.6773 16.5576 33.7372 16.4719 34.336 17.3439Z" fill="white"/>
<path d="M26.6411 8.33728C25.0841 8.49454 23.9464 8.92342 23.2877 9.60964C22.7787 10.1386 22.7487 10.2387 22.7487 11.125C22.7487 12.3545 23.093 13.584 23.7667 14.8134L24.3057 15.7999L24.5602 15.228C24.8596 14.5561 25.5782 13.8413 26.3566 13.4696C27.0453 13.1265 28.4974 13.0836 29.246 13.3838C29.9646 13.6697 30.743 14.3845 31.0574 15.0422C31.2071 15.3567 31.3868 15.614 31.4466 15.614C31.8658 15.614 33.0784 12.1686 33.0784 10.9678C33.0784 9.13786 30.2939 7.99417 26.6411 8.33728Z" fill="white"/>
<path d="M27.0154 14.113C26.2369 14.3846 25.3387 15.2996 25.2039 15.9572C25.0842 16.5719 25.3387 16.915 26.2219 17.3439C27.4345 17.9444 28.6771 17.8443 29.9796 17.0437C30.6083 16.6577 30.6832 16.5719 30.5933 16.2288C30.1891 14.5419 28.5573 13.5697 27.0154 14.113Z" fill="white"/>
<path d="M58.8279 6.87915C57.5704 7.25085 56.0883 8.33735 55.729 9.15223C55.4296 9.85275 55.19 12.2116 55.1601 14.8993L55.1301 17.2581L54.4415 17.9444C54.0523 18.3161 53.7379 18.6878 53.7379 18.7735C53.7379 19.0023 54.6062 18.4876 54.9505 18.0444C55.2948 17.6155 55.5942 17.587 55.4296 18.0158C55.3697 18.1445 55.0403 18.6735 54.696 19.1881C54.3517 19.7028 54.0223 20.2746 53.9624 20.4605C53.9026 20.6606 53.6331 21.018 53.3786 21.2468C52.8546 21.7185 46.9412 28.4377 46.522 29.0382C46.1328 29.5814 46.1927 30.1819 46.7316 31.1969C47.3305 32.3692 48.9772 33.956 50.3695 34.7423C52.3606 35.8574 55.5793 36.6294 58.274 36.6294C60.0106 36.6294 60.6244 36.2434 60.6244 35.1283C60.6244 34.0704 59.9956 33.6272 58.4985 33.6272C56.4027 33.6272 53.9624 33.0983 52.3007 32.2977C51.5222 31.926 50.085 30.7823 49.8455 30.3391C49.7258 30.1247 50.085 29.6386 51.9414 27.5085C53.7379 25.4498 54.2619 24.9495 54.4864 25.0067C54.6511 25.0495 54.7858 25.0067 54.7858 24.9209C54.7858 24.8351 54.8906 24.7636 55.0254 24.7636C55.205 24.7636 55.2499 24.6778 55.19 24.4634C55.1451 24.2918 55.1601 24.2061 55.22 24.2775C55.3397 24.3919 55.8637 26.0503 56.2829 27.58C56.4476 28.1947 56.4476 28.1947 57.1512 28.1947C57.5704 28.1947 58.0195 28.0946 58.2291 27.9517C59.2022 27.3226 61.5376 25.2783 63.0945 23.72L64.8161 21.9759L62.6454 21.933C60.5046 21.9044 60.4597 21.8901 60.295 21.547C60.1603 21.2754 60.1752 21.1324 60.3699 20.8608C60.5944 20.532 60.5795 20.3318 60.325 20.3318C60.1154 20.3318 59.7112 21.2039 59.801 21.4755C59.8758 21.7042 59.8309 21.7614 59.5165 21.7614C59.0225 21.7614 59.0225 21.5613 59.5165 20.6892C60.0106 19.7886 59.7561 19.5026 59.2321 20.3747C59.0225 20.7178 58.798 21.161 58.753 21.3611C58.6782 21.6328 58.5884 21.7042 58.3638 21.6614C58.2141 21.6185 58.0794 21.5613 58.0794 21.5184C58.0794 21.4898 58.3488 21.0323 58.6782 20.5034C59.0075 19.9887 59.262 19.4883 59.2321 19.4169C59.1273 19.1309 58.8578 19.1881 58.783 19.5026C58.6333 20.0459 57.6153 21.4755 57.3907 21.4755C57.2111 21.4755 57.226 21.3897 57.4805 21.0609C58.1542 20.146 58.5285 18.4304 58.1692 17.973C57.9446 17.7013 57.9446 17.7156 57.9297 18.2446C57.9297 19.0738 57.5105 20.3747 57.0913 20.8465L56.717 21.2611L56.9416 20.7178C57.256 19.9601 57.6302 18.1731 57.6302 17.444C57.6302 17.1009 57.5254 16.5433 57.4207 16.1859L57.1961 15.5426L57.1811 16.1859C57.1662 16.7721 57.1512 16.8007 57.0164 16.4719C56.7919 15.9286 56.6572 14.3274 56.8368 14.3274C56.9266 14.3274 57.0314 13.9414 57.0614 13.4697C57.1063 12.7692 57.2111 12.5118 57.6302 12.0115C58.1392 11.411 58.1392 11.411 57.735 11.6541L57.3159 11.9114L57.6302 11.3252C58.0045 10.6247 58.244 10.5104 58.9926 10.7105C59.6662 10.8821 60.0854 10.7248 59.6064 10.4818C59.4417 10.396 59.1722 10.3245 59.0225 10.3245C58.768 10.3102 58.783 10.2959 59.0525 10.0958C59.4267 9.82415 60.8789 9.89563 61.1334 10.1959C61.2531 10.3388 61.7023 10.396 62.87 10.396C64.1724 10.396 64.4868 10.3531 64.7113 10.1387C65.0108 9.85275 65.9389 9.80986 66.5677 10.0672C66.942 10.2101 66.9569 10.2387 66.6875 10.2959C66.5228 10.3245 66.2234 10.4246 66.0138 10.4961C65.6545 10.639 65.6545 10.6533 65.9389 10.7534C66.1036 10.8106 66.3881 10.7963 66.5827 10.7391C67.2564 10.4961 67.6156 10.5818 67.945 11.0965C68.3492 11.7112 68.3642 12.0401 67.9899 11.7112C67.8402 11.5683 67.6606 11.4682 67.5857 11.4682C67.5258 11.4682 67.6456 11.5969 67.8552 11.7541C68.4839 12.2259 68.7534 13.1552 68.7684 14.8993C68.7834 15.8857 68.7235 16.5147 68.6187 16.6148C68.4839 16.7435 68.454 16.6148 68.4989 16.0859L68.5588 15.3996L68.3342 16.043C67.93 17.2296 68.1546 19.5884 68.8133 20.8036C69.1427 21.4326 68.963 21.3897 68.5289 20.7464C68.1546 20.2031 67.96 19.5741 67.7354 18.2589C67.6456 17.7871 67.6156 17.7299 67.4809 17.9587C67.1516 18.5162 67.7654 20.7035 68.3642 21.1181C68.5588 21.2611 68.6636 21.8758 68.8732 24.5635C69.0229 26.3648 69.1576 27.9374 69.1576 28.0517C69.1726 28.1661 69.4271 27.4513 69.7265 26.4506C70.0259 25.4498 70.3104 24.6064 70.3553 24.5635C70.4002 24.5206 71.1038 26.1075 71.9122 28.0946L73.3943 31.6829L73.4692 36.8439L73.544 41.9905L74.0231 42.4479C74.6818 43.077 75.3854 43.0913 76.0741 42.5051L76.5681 42.0905V36.5293V30.9824L74.6219 26.2933C73.1548 22.805 72.541 21.4755 72.1817 21.1038C71.9122 20.8322 71.7026 20.532 71.7026 20.4319C71.7026 20.3318 71.3733 19.7457 70.9541 19.1166C70.3104 18.1445 70.0708 17.6155 70.2505 17.6155C70.2804 17.6155 70.6247 17.9158 71.014 18.2732C71.4781 18.6878 71.7925 18.8736 71.8823 18.7878C71.9721 18.7021 71.7625 18.4161 71.3134 18.0015L70.5948 17.3582L70.5798 15.1709C70.5649 12.4546 70.2954 9.89563 69.9211 9.12364C69.1726 7.49388 66.3282 6.3216 64.6215 6.95063C64.2622 7.07929 63.7233 7.4367 63.4089 7.73692L62.84 8.29446L62.3909 7.82269C61.5675 6.90774 60.0705 6.52174 58.8279 6.87915ZM61.1633 7.4081C61.6723 7.63684 62.5705 8.49461 62.5705 8.75194C62.5705 8.82342 62.346 8.76624 62.0915 8.60898C61.822 8.45173 61.4328 8.32306 61.2232 8.32306C61.0136 8.32306 60.6842 8.19439 60.4747 8.03714C59.9657 7.66544 59.0375 7.66544 58.3788 8.05143C57.7949 8.39454 56.5074 9.56682 56.0883 10.1673L55.8038 10.539L55.8937 10.0672C56.1032 8.88061 56.747 8.20869 58.259 7.53677C59.2022 7.12218 60.3998 7.065 61.1633 7.4081ZM67.451 7.52248C68.6337 8.05143 69.4121 8.79483 69.6816 9.6526C69.9511 10.5104 69.8912 10.639 69.5169 10.0672C69.1427 9.52393 67.7204 8.28017 67.1066 7.97995C66.4629 7.66544 65.6844 7.69403 65.2203 8.03714C65.0108 8.19439 64.6515 8.32306 64.397 8.32306C64.1574 8.32306 63.7832 8.45173 63.5586 8.62328C62.9448 9.08075 63.0795 8.60898 63.7383 8.00854C64.5317 7.29374 64.7712 7.19366 65.7892 7.17937C66.433 7.17937 66.912 7.27944 67.451 7.52248ZM60.0405 8.1801C60.1154 8.1801 60.1752 8.23728 60.1752 8.32306C60.1752 8.45173 59.9357 8.49461 58.6183 8.66616C58.0494 8.73765 58.0344 8.73765 58.3638 8.5232C58.783 8.23728 59.4417 8.03714 59.6962 8.12291C59.816 8.1515 59.9657 8.1801 60.0405 8.1801ZM67.1066 8.42313C67.6306 8.68046 67.6156 8.70905 67.0318 8.65187C65.9539 8.5375 65.5647 8.45173 65.5647 8.32306C65.5647 8.00854 66.3431 8.05143 67.1066 8.42313ZM61.7921 8.89491C62.0466 9.05216 62.2711 9.25231 62.2711 9.33809C62.2711 9.50964 62.2412 9.49534 61.5675 9.10934C61.1034 8.83772 60.9238 8.60898 61.1933 8.60898C61.2531 8.60898 61.5226 8.73765 61.7921 8.89491ZM64.2173 9.03786C63.6784 9.46675 63.4688 9.55252 63.4688 9.35238C63.4688 9.19512 63.9179 8.80913 64.2173 8.70905C64.7113 8.5375 64.7113 8.63757 64.2173 9.03786ZM60.7441 9.12364C60.834 9.15223 60.9238 9.2666 60.9238 9.36668C60.9238 9.52393 60.7741 9.55252 60.28 9.50964C59.8758 9.46675 59.4267 9.52393 59.0674 9.6669C58.2291 9.9957 58.2291 9.83845 59.0525 9.33809C59.7411 8.9235 59.9657 8.89491 60.7441 9.12364ZM66.7024 9.39527C67.5258 9.95282 67.5109 9.9957 66.6725 9.6669C66.2833 9.50964 65.8641 9.46675 65.385 9.50964C64.7113 9.59541 64.6664 9.58112 64.8161 9.32379C64.891 9.18083 65.1455 9.02357 65.3701 8.99498C65.6096 8.96638 65.8341 8.9235 65.8791 8.9092C65.924 8.9092 66.2982 9.12364 66.7024 9.39527ZM58.3488 9.36668C58.1093 9.53823 57.765 9.89563 57.5554 10.1673C57.256 10.5533 57.1811 10.6104 57.1811 10.3817C57.1811 9.78127 57.3907 9.42386 57.8398 9.23801C58.5734 8.93779 58.8129 8.99498 58.3488 9.36668ZM67.8851 9.2666C68.1246 9.32379 68.3043 9.52393 68.4091 9.83845C68.6935 10.6247 68.5289 10.6104 67.7354 9.78127C67.3312 9.33809 67.1066 9.02357 67.2564 9.08075C67.421 9.13794 67.6905 9.22372 67.8851 9.2666ZM61.9118 10.1387C61.852 10.1959 61.7023 10.1244 61.5825 9.98141C61.2531 9.53823 61.328 9.36668 61.7023 9.70979C61.8819 9.89563 61.9717 10.0815 61.9118 10.1387ZM64.0526 10.0529C63.7682 10.2244 63.6933 10.0815 63.9329 9.80986C64.0676 9.6526 64.1425 9.62401 64.1874 9.75267C64.2323 9.85275 64.1574 9.98141 64.0526 10.0529ZM56.3278 11.3252C55.7739 12.1401 55.714 11.8113 56.223 10.7963C56.5973 10.0529 56.6422 10.01 56.7021 10.3531C56.732 10.5961 56.5973 10.9535 56.3278 11.3252ZM69.5469 10.9535C69.9062 11.6969 70.0559 12.3832 69.7265 11.8256C69.6367 11.6684 69.4421 11.411 69.3073 11.2538C69.0229 10.9535 68.8133 9.9957 69.0528 10.1387C69.1277 10.1816 69.3522 10.5533 69.5469 10.9535ZM56.732 11.8828C56.6721 12.1115 56.5673 12.7835 56.5074 13.3839C56.3877 14.5705 56.208 14.6848 56.0434 13.6841C55.9386 12.9407 56.0134 12.569 56.4326 11.9257C56.7919 11.3538 56.8967 11.3395 56.732 11.8828ZM69.487 12.2831C69.7115 12.7549 69.7564 13.0837 69.6966 13.5269C69.5169 14.6277 69.3522 14.5276 69.1726 13.198C69.0828 12.4832 68.963 11.797 68.9031 11.6684C68.6935 11.1251 69.2025 11.6684 69.487 12.2831ZM55.9236 14.6562C56.1182 15.2138 55.8787 16.1859 55.6691 15.6713C55.5194 15.3139 55.5044 13.9557 55.6541 14.0987C55.714 14.1559 55.8338 14.4132 55.9236 14.6562ZM70.1307 15.128C70.0858 15.4711 69.981 15.757 69.9211 15.757C69.6816 15.757 69.6217 15.1137 69.7864 14.5705C69.9211 14.1273 69.981 14.0701 70.1008 14.256C70.1756 14.3846 70.1906 14.7849 70.1307 15.128ZM69.6666 17.058C69.6816 18.1302 69.457 17.7585 69.3522 16.5719C69.3073 15.8428 69.3223 15.7285 69.472 15.9572C69.5618 16.1002 69.6517 16.6005 69.6666 17.058ZM56.4176 16.3575C56.4176 16.6148 56.3278 17.0866 56.223 17.4011L56.0284 17.973L56.0583 17.1152C56.1032 15.9429 56.1182 15.9 56.2829 15.9C56.3727 15.9 56.4326 16.1145 56.4176 16.3575ZM56.8817 18.3875C56.6871 18.9594 55.8487 20.246 55.7439 20.146C55.6691 20.0745 55.8637 19.4597 56.4775 17.8443L56.7919 16.9865L56.9266 17.4583C57.0015 17.7442 56.9865 18.1016 56.8817 18.3875ZM69.5019 18.5591C69.8014 19.3597 69.996 20.0602 69.9361 20.1031C69.8014 20.246 68.8732 18.7592 68.7684 18.2303C68.6786 17.8157 68.7983 16.9293 68.9181 17.058C68.948 17.0866 69.2025 17.7728 69.5019 18.5591ZM55.4445 19.3311C55.19 20.0316 54.696 20.7607 54.4714 20.7607C54.3816 20.7607 54.3666 20.632 54.4265 20.4462C54.5313 20.0888 55.5493 18.5877 55.6242 18.6592C55.6541 18.6735 55.5643 18.988 55.4445 19.3311ZM71.2535 20.4033C71.3583 20.6749 71.3433 20.7607 71.1787 20.7607C70.984 20.7607 70.3253 19.617 70.1307 18.9022C70.0109 18.4876 71.0289 19.8457 71.2535 20.4033ZM69.3073 20.0459C69.6966 20.6177 69.7714 20.8322 69.6517 21.0752C69.5319 21.3468 69.487 21.304 69.2025 20.6749C68.8283 19.8314 68.6636 19.3311 68.7534 19.3311C68.7983 19.3311 69.0379 19.6599 69.3073 20.0459ZM56.6272 20.4033C56.3577 21.1038 55.9835 21.4183 55.9835 20.9608C55.9835 20.6463 56.7619 19.3597 56.8368 19.5598C56.8667 19.6456 56.7769 20.0316 56.6272 20.4033ZM55.3846 20.775C55.3846 20.9323 55.3248 21.0323 55.2349 20.9751C55.1601 20.9323 55.1301 20.8036 55.19 20.6892C55.2948 20.389 55.3846 20.4176 55.3846 20.775ZM70.5798 20.7607C70.6247 20.8322 70.5649 20.9037 70.4451 20.9037C70.3104 20.9037 70.2056 20.8322 70.2056 20.7607C70.2056 20.6749 70.2654 20.6177 70.3403 20.6177C70.4301 20.6177 70.5349 20.6749 70.5798 20.7607Z" fill="white"/>
<path d="M60.2202 11.3109C58.6034 11.7541 57.6303 12.6405 57.6303 13.6555C57.6303 14.5418 58.1243 16.3432 58.6333 17.3296C59.2471 18.5305 60.355 19.6885 61.2981 20.1173C61.6275 20.2603 62.2562 20.4176 62.6904 20.4461C65.2953 20.6606 67.96 17.3153 67.96 13.8127C67.96 12.8692 67.9451 12.8406 67.3163 12.2545C66.3881 11.411 65.4599 11.1537 63.0946 11.0965C61.5376 11.0536 60.9688 11.0965 60.2202 11.3109Z" fill="white"/>
<path d="M66.5229 19.4026C66.4031 19.6885 67.2115 20.9608 67.5558 21.018C67.7804 21.0609 67.7355 20.9465 67.3612 20.3604C67.1217 19.9744 66.9121 19.5884 66.9121 19.5026C66.9121 19.231 66.6127 19.1595 66.5229 19.4026Z" fill="white"/>
<path d="M65.8641 20.0316C65.8641 20.1031 66.0138 20.4033 66.1785 20.6892C66.4031 21.0324 66.5528 21.161 66.6576 21.0609C66.7474 20.9752 66.7025 20.7607 66.5228 20.4605C66.2384 20.003 65.8641 19.7457 65.8641 20.0316Z" fill="white"/>
<path d="M65.2054 20.4461C65.0857 20.6463 65.415 21.1895 65.6695 21.1895C65.939 21.1895 65.909 20.9894 65.5947 20.6034C65.4 20.4032 65.2803 20.346 65.2054 20.4461Z" fill="white"/>
<path d="M65.9989 22.0187C65.8791 22.0759 65.2953 22.6334 64.7114 23.2625C63.6635 24.4062 61.2083 26.7221 60.1454 27.5799C59.831 27.8372 59.5765 28.0803 59.5765 28.1232C59.5765 28.166 59.831 28.1946 60.1604 28.1946C61.0436 28.1946 63.2144 28.5806 64.1126 28.9094C65.1456 29.2811 65.5797 29.7243 65.6696 30.5106C65.8492 31.9402 64.6965 33.3413 62.5557 34.3134C61.4478 34.8138 61.4029 34.8709 61.3281 35.3999C61.2233 36.0718 60.849 36.6008 60.1604 36.9868C59.7113 37.2298 59.4418 37.2727 58.0046 37.2155C57.1064 37.1869 56.1183 37.1583 55.8339 37.144C55.3249 37.1297 55.3099 37.144 55.1302 37.916C54.5164 40.4893 51.9714 56.5725 52.1511 56.744C52.3457 56.9299 59.0825 55.4574 59.3669 55.1715C59.4567 55.0714 59.846 53.9277 60.2502 52.5982C60.6394 51.2829 60.9838 50.225 60.9987 50.2393C61.0287 50.2679 61.1933 51.2114 61.373 52.3551C61.5526 53.4988 61.7173 54.4566 61.7622 54.4852C61.9568 54.6711 67.0169 52.5982 68.8583 51.5688C70.7296 50.5109 72.7507 48.9812 72.7507 48.5952C72.7507 48.4237 72.2716 46.0648 71.6877 43.3485C70.7745 39.0597 70.5051 38.0733 69.6667 35.8431L68.6936 33.2698L68.2595 27.7658C68.005 24.735 67.8104 22.176 67.8104 22.0759C67.8104 21.89 66.4331 21.8472 65.9989 22.0187Z" fill="white"/>
<path d="M55.1602 28.9238C53.738 29.0953 52.2259 29.5528 51.8217 29.9102C51.6121 30.0961 51.4924 30.382 51.4924 30.6679C51.4924 31.0539 51.5972 31.1826 52.1511 31.5114C53.6332 32.3549 55.4895 32.798 58.3789 32.9839C59.9059 33.084 60.4298 33.2698 60.9089 33.856L61.2233 34.2277L62.2263 33.7845C64.1875 32.8981 65.0258 31.9403 64.936 30.6536C64.8911 30.0389 64.8462 29.9674 64.2923 29.6672C63.2892 29.1525 61.6574 28.8952 58.828 28.838C57.3908 28.8094 55.744 28.838 55.1602 28.9238ZM62.6455 29.6958C63.7084 29.9102 64.2473 30.2247 63.9779 30.4821C63.903 30.5536 63.409 30.7251 62.87 30.8681C62.0616 31.0825 61.2832 31.1254 58.304 31.1254C54.5314 31.1254 53.3038 30.9824 52.6601 30.4964L52.3307 30.239L52.7798 30.0103C53.214 29.7959 54.4416 29.5528 55.759 29.4242C57.0016 29.2955 61.6125 29.4813 62.6455 29.6958Z" fill="white"/>
<path d="M56.0434 29.8387C55.9236 30.1104 56.0883 30.3391 56.4326 30.3391C56.7171 30.3391 56.8817 30.0961 56.7769 29.7959C56.6871 29.5528 56.1482 29.5814 56.0434 29.8387Z" fill="white"/>
<path d="M54.9506 30.0531C54.6661 30.2104 54.8158 30.6965 55.1601 30.6965C55.3548 30.6965 55.4745 30.5821 55.5045 30.3963C55.5494 30.0674 55.25 29.8673 54.9506 30.0531Z" fill="white"/>
<path d="M61.7023 30.0812C61.4778 30.3388 61.7173 30.668 62.0616 30.5964C62.406 30.5392 62.4509 30.0096 62.1065 29.9381C61.9718 29.9237 61.7922 29.981 61.7023 30.0812Z" fill="white"/>
<path d="M58.9327 30.1533C58.783 30.2819 58.8129 30.7394 58.9627 30.8252C59.2022 30.9682 59.5765 30.7537 59.5765 30.4821C59.5765 30.3391 59.4717 30.1819 59.3369 30.139C59.0525 30.0389 59.0525 30.0389 58.9327 30.1533Z" fill="white"/>
<path d="M60.1005 30.1962C59.9807 30.382 60.2951 30.768 60.5496 30.768C60.7742 30.768 60.9688 30.382 60.834 30.1819C60.7292 30.0103 60.2202 30.0246 60.1005 30.1962Z" fill="white"/>
<path d="M57.2411 30.5536C57.1213 30.8252 57.286 31.054 57.6303 31.054C57.9597 31.054 58.1243 30.7251 57.8848 30.4964C57.6602 30.282 57.3309 30.2963 57.2411 30.5536Z" fill="white"/>
<path d="M21.0271 36.0861C20.8924 36.4721 18.6019 46.8511 18.6468 46.9083C18.6617 46.9226 19.2007 46.8368 19.8145 46.6939L20.9522 46.4365L21.7607 46.9798C22.8385 47.6946 22.9583 47.8233 23.5272 49.1385L24.0212 50.2679L25.6231 50.4966C26.5363 50.6253 27.3896 50.6682 27.6441 50.611C27.8687 50.5538 29.4855 50.225 31.2071 49.9105L34.351 49.3101L35.0845 48.5095C35.4887 48.0663 36.2223 47.3515 36.7013 46.9226C37.1804 46.4794 37.5696 46.0362 37.5696 45.9219C37.5547 45.8075 36.9708 43.5201 36.2373 40.8467L34.9198 35.9861L34.4557 35.9432C34.0366 35.9003 33.9767 35.9432 33.9767 36.2291C33.9767 36.4149 34.2761 38.2877 34.6504 40.4036C35.0097 42.5337 35.2791 44.3207 35.2342 44.3779C35.1893 44.4351 34.9947 44.4923 34.815 44.4923C34.4707 44.4923 34.4408 44.3922 33.7521 40.2606L33.0335 36.029L32.285 36.1147C31.8808 36.1576 31.5065 36.2148 31.4766 36.2577C31.4317 36.2863 31.5215 37.0011 31.6562 37.8446C31.791 38.6737 31.8808 39.3885 31.8509 39.4171C31.8209 39.46 31.6263 39.5029 31.4317 39.5172C31.0424 39.5601 31.1023 39.7459 30.6682 37.2012L30.5185 36.2577L29.2909 36.3864C28.4076 36.4721 27.3597 36.4435 25.5333 36.272C24.156 36.1433 22.9883 36.0718 22.9433 36.1147C22.8984 36.1433 22.8385 36.4578 22.8086 36.8009C22.6739 37.9589 22.614 38.0876 22.2547 38.0304C21.9403 37.9875 21.9253 37.9303 21.9702 36.9439L22.0002 35.9146H21.5511C21.2966 35.9146 21.057 36.0004 21.0271 36.0861Z" fill="white"/>
<path d="M20.7427 47.9519C20.4433 50.1107 18.9761 67.5376 19.066 67.9951C19.2007 68.6813 20.1888 69.725 20.9074 69.9537C21.7008 70.1967 22.7937 70.0538 23.4823 69.582C24.6201 68.8386 24.6051 68.9101 25.4435 59.7463C25.8477 55.2144 26.192 51.4831 26.192 51.4545C26.192 51.4259 25.5932 51.3115 24.8446 51.2258C24.1111 51.1257 23.4524 50.9684 23.3925 50.8826C23.3176 50.7826 23.0332 50.1678 22.7487 49.5102C22.3146 48.5095 22.12 48.2379 21.5361 47.8376L20.8325 47.3515L20.7427 47.9519Z" fill="white"/>
<path d="M35.1294 49.7528C34.9348 49.9673 34.2462 50.1531 32.3599 50.4962C30.9826 50.7536 29.8448 50.9823 29.8149 50.9966C29.725 51.0538 31.297 67.6373 31.4317 68.1234C31.9407 69.8389 34.1863 70.5966 35.7732 69.5959C36.5816 69.0812 36.9708 68.3092 36.9708 67.2084C36.9708 66.4793 35.5486 50.2961 35.4288 49.6528C35.4139 49.5241 35.3241 49.5384 35.1294 49.7528Z" fill="white"/>
<path d="M70.1308 51.7973C69.6367 52.1118 68.6187 52.6694 67.8552 53.0411C66.6127 53.6415 66.4929 53.7416 66.5528 54.0704C66.5827 54.2705 66.957 57.5729 67.3762 61.4186C67.8552 65.8504 68.1995 68.5524 68.3343 68.7954C68.4541 69.0098 68.7535 69.3529 69.008 69.5531C70.4901 70.754 72.8854 69.6961 72.9003 67.8376C72.9153 67.0656 71.1937 51.2111 71.1038 51.2111C71.0589 51.2111 70.6248 51.4828 70.1308 51.7973Z" fill="white"/>
<path d="M56.1332 56.8866C54.9355 57.1582 53.9325 57.4155 53.9026 57.4441C53.7678 57.5585 52.7049 67.8946 52.7947 68.2234C53.3187 70.3964 56.4625 70.7252 57.3758 68.6952C57.5404 68.3235 57.8099 66.3363 58.2291 62.5621C58.5584 59.4885 58.8279 56.8294 58.8279 56.6578C58.8279 56.2718 58.798 56.2718 56.1332 56.8866Z" fill="white"/>
</svg>
