<svg width="74" height="71" viewBox="0 0 74 71" fill="none" xmlns="http://www.w3.org/2000/svg">
<path d="M57.4249 0.174194C55.1542 0.712708 52.9992 2.32823 52.0158 4.26134C51.1191 6.02876 51.0757 6.443 51.4083 10.4335C51.553 12.1181 51.4373 12.4495 50.6418 12.8913C49.7885 13.3746 48.9786 14.0788 48.3711 14.8797C47.8938 15.501 42.5715 24.1862 41.9062 25.4013C41.4434 26.2712 41.4145 27.293 41.6893 32.8714C42.0508 40.0515 42.1087 40.3691 43.4682 41.6395L44.1335 42.247L43.9455 46.4722L43.7575 50.6975L40.3587 56.0964C38.4785 59.0651 36.8008 61.8405 36.6128 62.2547C35.9475 63.8012 36.3091 65.7067 37.5239 66.9494C38.276 67.7227 42.2967 70.2357 43.2079 70.4981C44.6252 70.9261 46.6066 70.3876 47.5757 69.3382C48.3277 68.5235 48.6314 67.7089 48.6314 66.6042C48.6314 65.4168 48.2699 64.5607 47.3443 63.6217C46.9827 63.2489 46.6934 62.9313 46.6934 62.8899C46.6934 62.8623 47.9228 60.8601 49.4414 58.4575C52.3484 53.8181 52.4786 53.5557 53.0571 50.8218L53.3897 49.2615L53.8526 49.7171C54.1129 49.9657 55.241 51.1117 56.3691 52.2716L58.4228 54.3704L59.5654 60.8739C60.2741 64.8506 60.8237 67.6122 60.9972 67.985C61.6336 69.3796 63.2534 70.4705 64.8733 70.6223C65.4084 70.6638 66.6811 70.5671 68.3588 70.3462C70.5283 70.0562 71.1357 69.932 71.7287 69.6144C73.5799 68.6616 74.4188 66.7009 73.7969 64.7954C73.5944 64.1602 73.3485 63.8012 72.7266 63.2075C71.8733 62.3928 71.3093 62.1443 69.6171 61.8819L68.9084 61.7715L68.0262 56.7177C67.2163 52.1335 67.0861 51.5536 66.6233 50.6422C66.3485 50.0761 64.584 46.9417 62.7183 43.683C59.7245 38.436 58.6832 36.4339 58.9435 36.4339C58.9869 36.4339 60.2307 37.4004 61.7059 38.5879C63.1956 39.7616 64.6708 40.88 65.0034 41.0733C67.3898 42.4265 70.7018 41.17 71.4973 38.6017C71.9022 37.29 71.7142 36.0334 70.9188 34.8874C70.7308 34.6112 68.7927 32.9543 66.6088 31.2145L62.6605 28.0386L62.4146 25.926C62.2266 24.3519 62.1976 23.5925 62.2989 23.0125C62.3712 22.5845 62.4869 21.4937 62.5303 20.5961C62.646 18.7459 62.4435 17.4756 61.8216 16.2605C61.6191 15.86 61.489 15.4872 61.5179 15.4458C61.5613 15.3906 61.9229 15.3077 62.3278 15.2663C63.7162 15.1006 65.0034 14.065 65.365 12.7809C65.4518 12.4771 65.7266 12.0352 66.0159 11.7867C66.6233 11.2344 66.6378 10.9444 66.1316 9.06651C65.8134 7.86522 65.7844 7.56145 65.9001 6.82963C66.1894 5.10363 65.5241 3.41906 63.991 1.98304C62.2121 0.32608 59.739 -0.35051 57.4249 0.174194ZM60.2018 2.93578C61.1274 3.21194 61.9518 3.77807 62.4869 4.50989C63.0076 5.22791 63.1377 5.97353 62.9063 6.7882C62.7472 7.2991 62.7617 7.53383 63.022 8.47277L63.3113 9.54979L62.9497 9.96403C62.6605 10.2954 62.6026 10.5025 62.6026 11.2344C62.6026 12.2285 62.4001 12.5461 61.7348 12.5461C61.0117 12.5461 59.7968 13.0708 59.2472 13.6093C58.1914 14.6725 57.9745 15.6805 58.6398 16.509C59.4931 17.5722 59.6377 18.1245 59.6233 20.0714C59.5943 23.0402 59.146 24.849 57.2947 29.737C56.6439 31.4078 56.0509 33.2304 55.9497 33.7966C55.6604 35.4811 55.9931 37.4971 56.8464 39.1126C57.0922 39.5821 58.8278 42.6613 60.7224 45.9614C62.6026 49.2615 64.1935 52.0783 64.2369 52.2302C64.2948 52.3682 64.7576 54.9089 65.2782 57.8914C65.7989 60.8601 66.2906 63.4698 66.3919 63.6769C66.6088 64.2293 67.1006 64.4088 68.7493 64.6021C70.3258 64.7816 70.5717 64.8644 70.9043 65.3201C71.3382 65.9 71.0923 66.8252 70.427 67.1566C70.2101 67.2532 68.9374 67.4741 67.5923 67.6536C65.2204 67.9436 65.1047 67.9574 64.584 67.7089C64.2948 67.5846 63.9332 67.2808 63.7741 67.0323C63.5716 66.7285 63.1956 64.8368 62.4001 60.2526C61.7927 56.7592 61.2576 53.7214 61.2142 53.5143C61.1563 53.2519 59.2906 51.236 55.5013 47.3421C52.4063 44.1663 49.8753 41.529 49.8753 41.4738C49.8753 41.4323 50.0633 41.1562 50.2947 40.8386C51.0757 39.8306 51.1046 39.3197 50.8298 33.9346C50.6129 29.7646 50.5984 29.0604 50.772 28.8671C53.9683 25.277 56.5282 22.3498 56.7162 22.0736C57.0778 21.5765 57.0199 20.9275 56.586 20.4305C56.2823 20.0714 56.1088 20.0024 55.5881 20.0024C55.2121 20.0024 54.8505 20.0991 54.6769 20.2371C54.5178 20.3752 52.8835 22.1841 51.0468 24.2553L47.7058 28.0248V29.088C47.7058 29.668 47.8071 31.7944 47.9228 33.8104C48.2265 39.1678 48.241 38.9883 47.648 39.5545C46.5777 40.5763 45.088 39.9273 44.9145 38.367C44.6975 36.4615 44.336 27.3068 44.4661 26.865C44.6975 26.0779 50.4682 16.7023 51.1335 16.0533C51.4662 15.7219 52.1604 15.2525 52.6811 15.0177C53.3753 14.7002 53.6645 14.4792 53.8236 14.1616C54.1852 13.4298 54.4021 11.7038 54.3009 10.3783C54.0261 6.77439 54.0261 6.85724 54.3588 6.02876C54.7203 5.08983 55.8629 3.8333 56.7307 3.40526C58.0902 2.74247 59.0592 2.60439 60.2018 2.93578ZM65.2204 33.7137C67.0283 35.1359 68.5613 36.4615 68.6626 36.6548C69.2266 37.8561 68.084 39.1678 66.8113 38.795C66.4787 38.6984 64.9745 37.5799 62.7472 35.7987C60.7947 34.2384 59.2038 32.9267 59.2038 32.8714C59.2038 32.8162 59.4497 32.112 59.7679 31.2973L60.3175 29.8061L61.1419 30.4688C61.5902 30.8278 63.427 32.2915 65.2204 33.7137ZM49.1232 44.8291C50.3815 46.1409 50.9889 46.8727 50.9455 47.0384C50.9166 47.1626 50.6273 48.4468 50.3091 49.869C49.991 51.305 49.6149 52.672 49.4992 52.9068C49.3691 53.1553 47.9662 55.406 46.3897 57.9052C44.8277 60.4183 43.4971 62.6275 43.4393 62.8209C43.3091 63.3456 43.5405 63.746 44.6542 64.9059C45.2182 65.4996 45.7099 66.1348 45.7678 66.3281C45.9703 67.0875 45.2182 67.916 44.3504 67.916C43.8587 67.916 39.8959 65.4306 39.4909 64.8644C38.8111 63.9255 38.8835 63.7736 42.9331 57.3529L46.6066 51.5536L46.7079 49.3443C46.7657 48.1292 46.867 46.1547 46.9104 44.9534C46.9682 43.7521 47.0695 42.7855 47.1273 42.8131C47.1996 42.8408 48.0963 43.7383 49.1232 44.8291Z" fill="white"/>
<path d="M28.745 8.10041C28.0218 8.72177 28.0652 9.31551 28.9474 10.4892C29.3235 11.0001 29.6272 11.4557 29.6272 11.4972C29.6272 11.7733 26.8937 13.665 25.1582 14.604C22.6416 15.9571 20.0528 16.8685 17.0589 17.476C15.4246 17.8074 14.9184 17.8488 12.1994 17.8488C9.81302 17.8626 8.84401 17.8074 7.68698 17.6003C5.99482 17.2965 5.47415 17.3932 5.11258 18.0836C4.59192 19.0225 5.01134 19.63 6.86259 20.6933C10.782 22.9578 15.5982 24.2833 19.966 24.2833C21.0073 24.2833 21.123 24.2557 21.5569 23.8829C21.9474 23.5515 22.0342 23.3858 22.0342 22.9025C22.0342 22.4331 21.9474 22.2536 21.5858 21.9498C21.1664 21.5908 21.0507 21.5632 19.2718 21.4803C18.2449 21.4389 16.7263 21.2732 15.8874 21.1075C15.0486 20.9556 14.3544 20.8313 14.3399 20.8313C14.311 20.8313 14.2965 20.7761 14.2965 20.7071C14.2965 20.6518 14.7883 20.5552 15.3957 20.4999C19.0548 20.21 24.0445 18.5254 27.7325 16.3438C29.3235 15.4048 31.6231 13.6788 32.4908 12.7813C33.1851 12.0495 33.2574 11.6214 32.7946 10.9034L32.5053 10.4478L35.6582 10.5444C37.3938 10.5996 38.8256 10.6687 38.8545 10.6825C38.8834 10.7101 38.464 12.0357 37.9144 13.6374C37.0177 16.3161 36.902 16.5509 36.6417 16.4818C35.745 16.2057 35.6438 16.2333 33.9516 17.3103C33.0549 17.8902 32.1582 18.5254 31.9846 18.7187C31.3338 19.3815 31.6665 20.5414 32.5776 20.8313C33.1417 21.0108 33.5032 20.9004 34.7326 20.1824C35.5136 19.7267 35.6004 19.7129 35.7305 19.9338C36.338 20.9694 37.2925 21.3284 38.1169 20.8451C38.5653 20.5828 38.6665 20.3066 40.4744 15.0734C41.5012 12.0495 42.3545 9.39836 42.3545 9.19124C42.3545 8.97031 42.2822 8.68034 42.2099 8.52845C41.8628 7.9209 41.588 7.89329 35.2533 7.78283L29.2367 7.67236L28.745 8.10041Z" fill="white"/>
<path d="M26.4888 20.7622C25.0859 21.3284 25.5053 23.3167 27.0239 23.3167C28.2966 23.3167 28.933 21.9911 28.0797 21.1212C27.5879 20.6242 27.0962 20.5137 26.4888 20.7622Z" fill="white"/>
<path d="M24.6375 35.1087C22.8007 35.5506 21.0652 36.8899 20.2552 38.5193L19.7924 39.4306L19.1127 39.3063C18.1581 39.1268 16.2635 39.2787 15.0775 39.6239C13.0527 40.2177 12.5754 40.5491 9.04649 43.8906C4.76547 47.9225 4.11464 48.751 3.5072 50.9188C3.2324 51.9268 3.2324 54.0947 3.52166 55.1303L3.7386 55.9449L2.00306 59.5764C1.03404 61.5786 0.180733 63.5531 0.0939555 63.9673C-0.28208 65.6381 0.498916 67.5712 1.93074 68.6068C2.3357 68.8968 3.40596 69.4629 4.31712 69.8633C5.87911 70.5537 6.05267 70.5952 7.13739 70.609C8.52582 70.609 9.33575 70.3052 10.218 69.4629L10.7965 68.9106L11.2882 69.3939C11.5486 69.6562 12.0982 70.0428 12.4887 70.2361C13.1684 70.5813 13.3564 70.609 15.6416 70.6504C17.1746 70.6918 18.3317 70.6504 18.7511 70.5537C19.6767 70.3328 20.8048 69.5734 21.2966 68.8139L21.716 68.1926L22.1209 68.8139C22.6271 69.5734 23.5238 70.2085 24.4639 70.4709C27.0239 71.2027 30.2057 69.7253 31.4784 67.226C32.0859 66.0247 32.2739 64.8372 32.0859 63.2079C31.8255 60.8191 31.2615 59.2174 29.7574 56.732L28.7594 55.0612V51.554C28.7594 47.5083 28.6582 47.7568 30.2202 47.7568C31.5508 47.7568 32.2016 47.5221 33.026 46.7212C33.9082 45.8789 34.1107 45.3266 34.1107 43.6835C34.1107 41.9989 33.9227 41.488 32.9247 40.5352C32.3462 39.9829 32.0425 39.5549 31.9268 39.1545C31.0735 36.1305 27.8627 34.3493 24.6375 35.1087ZM27.2842 37.8979C28.2966 38.2984 29.1933 39.4168 29.1933 40.2867C29.1933 40.9909 29.4392 41.3775 30.3503 42.0403L31.2181 42.6893V43.6835C31.2181 44.3186 31.1458 44.7329 31.0445 44.8295C30.9433 44.8986 30.3069 44.9952 29.6272 45.0228C27.8049 45.1195 26.8214 45.6994 26.1706 47.0664C25.8958 47.6463 25.8668 47.9639 25.8668 51.7473V55.8068L26.7925 57.3395C28.6148 60.322 29.1933 61.9238 29.2367 64.1192C29.2656 65.2515 29.2222 65.4172 28.8462 66.0938C28.3689 66.9084 27.747 67.4193 26.8648 67.7093C25.7511 68.0821 24.8544 67.9026 24.4784 67.2122C24.0445 66.3975 24.3338 65.6795 25.3172 65.2101C26.2139 64.782 26.3586 64.492 26.2573 63.3736C26.1416 62.1171 25.6788 61.0262 24.2181 58.6099L22.9743 56.5387V53.3214C22.9743 49.6485 22.9019 49.3033 22.0342 48.9029C21.6292 48.7234 21.4267 48.6957 21.123 48.8062C20.9061 48.8891 18.9391 50.0765 16.7407 51.4573C14.094 53.1281 12.6911 54.0947 12.5899 54.3156C12.1994 55.1164 12.2717 55.2269 14.9184 58.7203L16.1767 60.3773V62.1861C16.1767 63.5669 16.2345 64.064 16.3936 64.2849C16.5093 64.4506 17.0734 64.7544 17.6374 64.9615C18.3895 65.2515 18.7511 65.4724 18.9536 65.7762C19.3296 66.3561 19.2139 67.0465 18.6354 67.5298C18.2015 67.9164 18.1726 67.9164 16.1767 67.9164C15.0775 67.9164 14.0073 67.8612 13.8048 67.7783C13.6023 67.7093 13.2986 67.4469 13.1395 67.1984C12.8792 66.7842 12.8502 66.4942 12.8502 64.1745C12.8502 61.8409 12.8213 61.5648 12.5754 61.261C12.4163 61.0677 11.2448 60.0321 9.98658 58.9551C7.6002 56.9253 7.16631 56.4696 6.60226 55.2821C6.313 54.6884 6.26961 54.3708 6.26961 53.0038C6.26961 50.5736 6.41424 50.3389 10.4639 46.3898C13.9494 43.0069 14.5135 42.5926 16.3358 42.1508C17.435 41.8746 18.7077 41.9575 20.0528 42.3717C20.8482 42.6064 21.0218 42.6203 21.4267 42.4546C22.0776 42.206 22.2077 41.9989 22.4681 40.9081C22.7428 39.7758 23.2346 38.9197 23.8999 38.4364C24.8978 37.7046 26.2718 37.4837 27.2842 37.8979ZM20.4722 57.9057C20.6313 58.2094 21.2966 59.3279 21.9474 60.3773C23.3937 62.766 23.4371 62.9456 22.8007 63.4841C22.5259 63.705 22.1788 64.1054 22.0342 64.3678L21.7594 64.851L21.3689 64.2573C20.9784 63.6636 20.0238 62.8903 19.4164 62.6694C19.1271 62.5589 19.0982 62.4347 19.0548 60.971L18.997 59.4107L17.5073 57.4362C16.6974 56.3592 16.0321 55.4064 16.0321 55.3374C16.0321 55.2683 16.9288 54.647 18.0279 53.9704L20.0094 52.7415L20.0817 55.0474C20.154 57.0496 20.1974 57.4224 20.4722 57.9057ZM7.4845 62.1861C6.73242 63.7188 6.74689 64.0226 7.62912 64.9201C8.52582 65.8452 8.69938 66.1766 8.59814 66.7427C8.48244 67.3089 7.77375 67.9164 7.23863 67.9164C6.74689 67.9164 4.08571 66.7704 3.6229 66.3561C3.20348 65.9971 2.87083 65.3067 2.87083 64.7958C2.87083 64.5887 3.46381 63.1527 4.20142 61.62L5.532 58.8308L6.79028 59.9354L8.04855 61.0401L7.4845 62.1861Z" fill="white"/>
</svg>
