<svg width="619" height="603" viewBox="0 0 619 603" fill="none" xmlns="http://www.w3.org/2000/svg">
<path d="M199.28 555.757C196.881 566.873 184.586 572.496 174.146 567.207C171.868 566.055 168.193 562.321 167.069 560.011C164.513 554.713 164.507 549.717 166.981 544.413C171.93 533.94 186.234 531.543 194.502 539.756C198.824 544.067 200.564 549.842 199.28 555.757Z" fill="black"/>
<path d="M149.459 506.266C148.919 508.816 147.291 511.978 145.493 514.02C140.063 520.212 130.277 521.515 123.271 517.004C113.986 511.001 112.61 498.088 120.451 490.33C123.981 486.859 127.683 485.325 132.611 485.319C137.504 485.347 141.347 486.906 144.681 490.232C149.037 494.576 150.743 500.318 149.459 506.266Z" fill="black"/>
<path d="M199.155 456.605C197.837 462.724 192.475 468.202 186.427 469.603C184.185 470.115 180.073 470.053 177.761 469.478C165.557 466.298 160.916 450.774 169.4 441.349C175.033 435.021 184.819 433.752 191.792 438.399C195.567 440.909 198.223 444.78 199.146 449.128C199.761 451.948 199.763 453.817 199.155 456.605Z" fill="black"/>
<path d="M199.409 505.592C199.24 506.611 198.563 508.515 197.919 509.842C194.902 516.064 189.367 519.572 182.502 519.58C177.404 519.587 173.766 518.096 170.193 514.532C164.817 509.135 163.618 501.49 167.076 494.451C168.194 492.173 171.792 488.464 174.135 487.238C179.026 484.615 185.347 484.573 190.516 487.183C192.76 488.302 195.89 491.221 197.15 493.428C199.228 496.96 200.083 501.717 199.409 505.592Z" fill="black"/>
<path d="M149.59 455.75C148.646 461.257 144.981 466.087 139.921 468.506C137.475 469.631 135.641 470.007 132.412 470.045C124.494 470.055 117.827 464.83 115.778 456.982C113.558 448.319 118.78 439.069 127.408 436.407C129.82 435.656 134.102 435.515 136.652 436.09C145.184 438.05 151.109 447.014 149.59 455.75Z" fill="black"/>
<path d="M99.5338 456.493C98.4526 461.558 94.958 466.116 90.5768 468.297C87.7578 469.694 85.9572 470.07 82.5588 470.108C67.334 470.161 59.6984 451.683 70.4578 440.863C73.9538 437.358 77.6901 435.79 82.5158 435.784C85.9143 435.814 87.7159 436.185 90.5383 437.575C95.0269 439.779 98.465 444.328 99.559 449.526C100.174 452.414 100.176 453.604 99.5338 456.493Z" fill="black"/>
<rect x="228" y="603" width="272" height="391" rx="20" transform="rotate(-90 228 603)" fill="#0D0D0D"/>
<g filter="url(#filter0_d_168_4)">
<rect x="30" y="30" width="310" height="417" rx="20" fill="white"/>
</g>
<path d="M185 238.5L157 288" stroke="white" stroke-width="5"/>
<path d="M185 238.5L139 164" stroke="white" stroke-width="5"/>
<path d="M185 238.5L139 164" stroke="white" stroke-width="5"/>
<path d="M233.206 340.87L217 315.032" stroke="white" stroke-width="2"/>
<path d="M294.206 277.87L265.348 268" stroke="white" stroke-width="2"/>
<path d="M272.206 314.87L246.474 298.497" stroke="white" stroke-width="2"/>
<path d="M136 340.87L152.206 315.032" stroke="white" stroke-width="2"/>
<path d="M75 277.87L103.859 268" stroke="white" stroke-width="2"/>
<path d="M97 314.87L122.732 298.497" stroke="white" stroke-width="2"/>
<path d="M233.206 130L217 155.838" stroke="white" stroke-width="2"/>
<path d="M294.206 193L265.348 202.87" stroke="white" stroke-width="2"/>
<path d="M272.206 156L246.474 172.374" stroke="white" stroke-width="2"/>
<path d="M136 130L152.206 155.838" stroke="white" stroke-width="2"/>
<path d="M75 193L103.859 202.87" stroke="white" stroke-width="2"/>
<path d="M97 156L122.732 172.374" stroke="white" stroke-width="2"/>
<path d="M185 149.5V119" stroke="white" stroke-width="2"/>
<path d="M185 356.5V326" stroke="white" stroke-width="2"/>
<path d="M67 238H97.5" stroke="white" stroke-width="2"/>
<path d="M272 238H302.5" stroke="white" stroke-width="2"/>
<path d="M478.584 370.08C477.72 370.484 476.422 371.518 475.702 372.371L474.404 373.943L474.26 464.461C474.164 565.266 473.876 556.686 477.431 559.246L479.113 560.459H502.8C525.959 560.459 526.487 560.459 527.784 559.516C528.505 559.021 529.562 558.033 530.091 557.359L531.1 556.146V465V373.854L530.091 372.596C529.562 371.922 528.361 370.889 527.496 370.305L525.911 369.316H503.04C482.861 369.316 479.978 369.406 478.584 370.08Z" fill="white"/>
<path d="M405.169 423.627C402.911 424.615 401.325 426.277 400.652 428.568C400.268 429.646 400.172 450.176 400.268 492.896L400.412 555.562L401.613 557.225C402.238 558.123 403.583 559.246 404.544 559.74C406.274 560.639 406.995 560.684 429 560.684C451.005 560.684 451.726 560.639 453.456 559.74C454.417 559.246 455.762 558.123 456.387 557.225L457.588 555.562L457.732 492.941C457.78 451.523 457.684 429.736 457.348 428.613C456.675 426.322 455.138 424.615 452.831 423.627C451.005 422.863 449.276 422.773 429 422.773C408.724 422.773 406.995 422.863 405.169 423.627Z" fill="white"/>
<path d="M331.177 473.49C330.071 473.939 328.678 475.018 328.054 475.826L326.9 477.354L326.756 516.48L326.66 555.607L327.717 557.09C328.342 557.898 329.447 559.021 330.168 559.516C331.513 560.459 331.945 560.459 355.152 560.459H378.791L380.377 559.426C381.241 558.842 382.346 557.584 382.875 556.641C383.788 554.934 383.836 553.855 383.836 516.75V478.611L382.731 476.68C381.962 475.332 380.953 474.389 379.512 473.67L377.446 472.637H355.296C334.732 472.637 333.002 472.727 331.177 473.49Z" fill="white"/>
<defs>
<filter id="filter0_d_168_4" x="0" y="0" width="350" height="457" filterUnits="userSpaceOnUse" color-interpolation-filters="sRGB">
<feFlood flood-opacity="0" result="BackgroundImageFix"/>
<feColorMatrix in="SourceAlpha" type="matrix" values="0 0 0 0 0 0 0 0 0 0 0 0 0 0 0 0 0 0 127 0" result="hardAlpha"/>
<feOffset dx="-10" dy="-10"/>
<feGaussianBlur stdDeviation="10"/>
<feComposite in2="hardAlpha" operator="out"/>
<feColorMatrix type="matrix" values="0 0 0 0 0 0 0 0 0 0 0 0 0 0 0 0 0 0 0.36 0"/>
<feBlend mode="normal" in2="BackgroundImageFix" result="effect1_dropShadow_168_4"/>
<feBlend mode="normal" in="SourceGraphic" in2="effect1_dropShadow_168_4" result="shape"/>
</filter>
</defs>
</svg>
