<svg width="202" height="36" viewBox="0 0 202 36" fill="none" xmlns="http://www.w3.org/2000/svg">
<path d="M9.23859 0.312844C9.01871 0.575284 4.85936 8.43207 4.40128 9.49823C4.30967 9.67866 5.06091 10.2363 6.9482 11.3517C8.39573 12.221 9.73332 12.9427 9.89823 12.9427C10.0631 12.9427 11.4007 12.221 12.8483 11.3517C14.7355 10.2363 15.4685 9.69506 15.3952 9.49823C14.9371 8.43207 10.7961 0.575284 10.5579 0.312844C10.393 0.148819 10.0815 0.00121307 9.89823 0.00121307C9.71499 -0.0151892 9.4035 0.132417 9.23859 0.312844Z" fill="white"/>
<path d="M2.66061 12.7787C2.34912 13.4184 1.61619 14.8455 1.02985 15.9608C-0.0695381 18.0767 -0.234446 18.6672 0.278602 18.6672C0.828296 18.6672 7.58954 14.5174 7.60786 14.1894C7.60786 13.8449 4.14478 11.6306 3.57677 11.6306C3.39354 11.647 3.02707 12.0898 2.66061 12.7787Z" fill="white"/>
<path d="M13.9843 12.7623C12.8666 13.4348 12.1703 13.9761 12.1703 14.1894C12.1886 14.5174 18.9499 18.6672 19.4995 18.6672C20.0492 18.6672 19.8294 18.0604 18.1986 14.8619C16.971 12.5327 16.4579 11.7126 16.1831 11.6962C15.9632 11.6798 14.9737 12.1555 13.9843 12.7623Z" fill="white"/>
<path d="M7.88265 16.4037C6.28854 17.3879 5.86711 17.9127 6.38015 18.1916C6.50842 18.2408 6.58171 19.0117 6.58171 19.881C6.58171 22.243 6.47177 22.1774 9.87987 22.1774C13.288 22.1774 13.178 22.2594 13.178 19.881C13.178 19.0117 13.288 18.2572 13.3796 18.1916C13.8926 17.8963 13.4712 17.3715 11.8038 16.3873C10.851 15.8132 9.95317 15.3376 9.80658 15.354C9.71497 15.354 8.81713 15.8296 7.88265 16.4037Z" fill="white"/>
<path d="M5.8488 23.9325C5.50066 24.4082 5.57395 24.9495 6.10532 25.4088C6.58173 25.8188 13.233 25.8188 13.7094 25.4088C14.2225 24.9495 14.3141 24.4082 13.966 23.9325C13.6361 23.4733 13.6361 23.4733 9.91654 23.4733C6.19694 23.4733 6.17862 23.4733 5.8488 23.9325Z" fill="white"/>
<path d="M5.99544 27.2787C5.44574 27.9019 5.46407 28.1972 6.08705 28.7385C6.58178 29.1813 6.63675 29.1978 9.91659 29.1978C13.1964 29.1978 13.2331 29.1813 13.7461 28.7385C14.3691 28.1972 14.3874 27.9019 13.8377 27.2787L13.4163 26.803H9.89827H6.39855L5.99544 27.2787Z" fill="white"/>
<path d="M9.03705 30.5427C8.76221 30.6411 8.48736 30.8052 8.39574 30.9364C8.30413 31.0676 8.23083 32.0845 8.23083 33.2327C8.23083 35.1518 8.24916 35.3158 8.68891 35.5783C9.29358 35.9555 10.4846 35.9555 11.0892 35.5783C11.529 35.3158 11.5473 35.1518 11.5473 33.1999C11.5473 31.5433 11.4924 31.0348 11.2175 30.8215C11.0526 30.6575 10.7778 30.5263 10.6678 30.5099C10.5212 30.5099 10.2097 30.4771 9.98986 30.4607C9.73333 30.4115 9.3119 30.4443 9.03705 30.5427Z" fill="white"/>
<path d="M27.9969 11.4302C27.6741 11.5247 27.5796 13.1548 27.5796 17.9586V24.3295L28.3511 24.5185C29.6343 24.8414 29.8232 24.4555 29.8232 21.7308V19.2028H32.1927C35.0425 19.2028 35.5858 19.0453 35.5858 18.1161C35.5858 16.9348 34.9797 16.6434 32.3188 16.6434H29.8232V15.5882C29.8232 13.8242 29.9176 13.7927 35.2629 13.6982L40.2225 13.6037V12.4854V11.3671L34.3026 11.3041C31.0356 11.2726 28.1858 11.3357 27.9969 11.4302Z" fill="white"/>
<path d="M27.0363 11.2255C26.7135 11.32 26.6191 12.95 26.6191 17.7538V24.1248L27.3905 24.3138C28.6737 24.6367 28.8628 24.2508 28.8628 21.526V18.9982H31.2323C34.0821 18.9982 34.6252 18.8406 34.6252 17.9113C34.6252 16.7301 34.0191 16.4388 31.3582 16.4388H28.8628V15.3835C28.8628 13.6195 28.9572 13.588 34.3025 13.4935L39.262 13.3989V12.2807V11.1625L33.3421 11.0994C30.0751 11.0679 27.2252 11.131 27.0363 11.2255Z" fill="#771712"/>
<path d="M47.5124 11.5562C47.1896 11.8791 47.0951 13.6353 47.0951 18.1477V24.3217L47.9295 24.5107C49.3072 24.8651 49.4961 24.3532 49.6536 18.9431L49.811 13.9188L53.1096 13.8243C56.6915 13.7298 57.6518 14.0133 57.6518 15.1709C57.6518 16.2892 57.0457 16.6121 54.6447 16.7066C52.9521 16.7696 52.3381 16.927 52.0862 17.3444C51.3855 18.4627 52.2121 19.0376 54.6447 19.1399C55.8255 19.2029 57.0143 19.3998 57.2347 19.5888C57.4866 19.8093 57.6518 20.7071 57.6518 22.1167C57.6518 24.2272 57.6833 24.3217 58.5178 24.5186C59.801 24.873 60.2813 23.9752 60.1475 21.4788C60.053 19.7857 59.8876 19.3368 59.2185 18.7619L58.4155 18.061L59.1161 17.5177C60.7771 16.2734 60.234 13.0368 58.2187 11.95C56.849 11.2019 48.15 10.8869 47.5124 11.5562Z" fill="white"/>
<path d="M64.7842 11.6192C62.9579 12.2886 62.2888 13.2494 62.2888 15.1709C62.2888 18.2107 63.8554 19.2029 68.7834 19.2029C70.7988 19.2029 72.0504 19.329 72.3023 19.5888C72.814 20.1007 72.7825 21.3529 72.3023 21.6679C72.0819 21.7939 69.8069 21.9907 67.2799 22.0853C63.3437 22.2113 62.6116 22.3451 62.3203 22.7861C62.0605 23.2035 62.0605 23.5185 62.3203 23.9044C62.6431 24.3847 63.2808 24.4792 66.7997 24.5737C73.1369 24.6997 74.8609 23.9358 75.1522 20.8961C75.2781 19.6439 75.1836 19.2029 74.5774 18.4312C73.4911 17.053 72.1449 16.6357 68.5945 16.6357C66.5792 16.6357 65.3275 16.5096 65.0756 16.2498C64.5639 15.7379 64.5954 14.4858 65.1071 14.1708C65.2961 14.0448 67.571 13.8479 70.0981 13.7534C74.0342 13.6274 74.7663 13.4935 75.0576 13.021C75.3174 12.6351 75.3174 12.3202 75.0576 11.9028C74.7348 11.4224 74.0972 11.3594 70.2555 11.2964C67.4766 11.2728 65.4298 11.3987 64.7842 11.6192Z" fill="white"/>
<path d="M77.553 11.5878C77.3326 11.8083 77.1673 12.1942 77.1673 12.4856C77.1673 13.4463 77.8994 13.7692 80.08 13.7692C81.7411 13.7692 82.2527 13.8952 82.418 14.2811C82.5125 14.5724 82.607 16.935 82.607 19.5653V24.3375L83.4101 24.5266C84.9767 24.9125 85.1341 24.4005 85.2364 18.9274L85.3308 13.9346L87.2517 13.7771C88.9442 13.6511 89.1725 13.5172 89.267 12.8793C89.4874 11.3437 89.0072 11.2177 83.284 11.2177C79.5368 11.2019 77.805 11.3358 77.553 11.5878Z" fill="white"/>
<path d="M133.029 11.9106C132.486 12.7768 128.038 23.8491 128.038 24.361C128.038 24.55 128.55 24.6525 129.188 24.5816L130.368 24.4871L132.258 19.5888C133.313 16.9349 134.273 14.722 134.399 14.722C134.525 14.722 135.265 16.4151 136.029 18.4626C138.044 23.9988 138.43 24.6366 139.516 24.6366C140.028 24.6366 140.571 24.4477 140.76 24.2193C140.949 23.9988 141.878 21.7859 142.838 19.3525C143.799 16.8876 144.696 14.9031 144.854 14.9031C145.011 14.9346 145.877 16.8876 146.806 19.2265C147.703 21.5969 148.601 23.7704 148.79 24.0618C149.238 24.7942 151.065 24.8651 151.065 24.1563C151.065 23.8964 149.978 20.959 148.632 17.5964C146.585 12.5091 146.074 11.4853 145.467 11.3199C143.901 10.934 143.578 11.3515 141.657 16.1553C140.634 18.7147 139.705 20.7936 139.579 20.7936C139.485 20.7936 138.587 18.7776 137.627 16.2812C136.635 13.6903 135.674 11.6743 135.352 11.4774C134.438 11.0128 133.509 11.1703 133.029 11.9106Z" fill="white"/>
<path d="M158.339 11.5878C157.796 12.0366 153.316 23.1405 153.316 24.0698C153.316 24.5186 153.576 24.6446 154.403 24.6446C155.489 24.6446 155.489 24.6131 156.678 21.5104C158.914 15.7143 159.236 14.9819 159.559 14.9819C159.716 14.9819 160.708 17.1554 161.732 19.8172L163.621 24.6525H164.708C165.542 24.6525 165.794 24.5265 165.794 24.0776C165.794 23.2743 161.315 12.2335 160.771 11.6586C160.189 11.1073 159.039 11.0759 158.339 11.5878Z" fill="white"/>
<path d="M168.258 11.4303C168.132 11.5248 168.038 14.4071 168.038 17.7697C168.038 24.4871 168.163 24.936 169.801 24.5265C170.604 24.3375 170.604 24.306 170.604 20.652C170.604 17.8327 170.698 16.9743 171.021 16.9743C171.242 16.9743 173.068 18.6989 175.052 20.8173C177.933 23.8886 178.831 24.6604 179.5 24.6604C181.161 24.6604 181.192 24.5973 181.098 17.9429C181.003 12.4697 180.94 11.7374 180.46 11.4145C180.043 11.1546 179.728 11.1546 179.342 11.4145C178.862 11.7059 178.768 12.3752 178.673 15.6749C178.642 17.7854 178.484 19.5494 178.319 19.5494C178.067 19.5494 175.634 17.116 171.887 13.0525C170.635 11.7059 169.966 11.2255 169.329 11.2255C168.833 11.2018 168.352 11.3043 168.258 11.4303Z" fill="white"/>
<path d="M186.073 11.5563C185.53 11.7138 184.695 12.2257 184.215 12.6746C183.034 13.8559 183.003 16.4861 184.184 17.7304C185.333 18.9825 186.262 19.203 189.946 19.203C192.922 19.203 193.308 19.266 193.623 19.8094C194.008 20.5811 194.008 20.8332 193.623 21.4395C193.402 21.8254 192.308 21.9514 188.442 22.0774L183.546 22.2349V23.3532V24.4714L187.805 24.566C192.536 24.6605 194.299 24.3454 195.386 23.1563C196.889 21.5577 196.598 18.8014 194.811 17.5256C193.914 16.8877 193.339 16.7933 190.009 16.6909C186.711 16.5964 186.23 16.5019 185.947 15.9585C185.498 15.1553 186.041 14.1315 187.002 13.911C187.388 13.8165 189.592 13.7219 191.867 13.6511L196.024 13.5881V12.4698V11.3516L191.544 11.2885C189.08 11.2728 186.616 11.3988 186.073 11.5563Z" fill="white"/>
<path d="M42.8362 11.7137C42.7103 11.8397 42.6157 14.722 42.6157 18.1162V24.3217L43.4502 24.5107C43.8989 24.6367 44.4107 24.5737 44.5681 24.4162C44.7256 24.2587 44.8278 21.5025 44.7885 17.8878L44.694 11.6822L43.8911 11.5878C43.4424 11.5248 42.97 11.5877 42.8362 11.7137Z" fill="white"/>
<path d="M98.1235 11.9106C98.029 12.1705 97.9976 14.9819 98.0291 18.2185C98.1235 23.4003 98.1865 24.1406 98.6982 24.4556C99.7846 25.1565 100.359 24.3296 100.525 21.7387L100.682 19.3683L103.083 19.2108L105.484 19.0533L105.579 18.0296C105.705 16.8483 105.421 16.7144 102.445 16.5884L100.682 16.4939L100.525 14.092L100.367 11.6901L99.3123 11.5956C98.6668 11.5247 98.2179 11.6507 98.1235 11.9106Z" fill="white"/>
<path d="M108.68 11.9105C108.586 12.1704 108.554 14.9818 108.586 18.2184C108.68 23.4002 108.743 24.1405 109.255 24.4555C109.641 24.7154 109.956 24.7154 110.373 24.4555C110.853 24.1326 110.916 23.4632 110.916 17.8956V11.69L109.861 11.5955C109.223 11.5246 108.775 11.6506 108.68 11.9105Z" fill="white"/>
<path d="M113.388 11.9105C112.908 12.3909 112.876 18.5335 113.356 20.329C113.545 21.0299 114.254 22.1245 114.892 22.7624C117.678 25.5502 122.953 25.1013 125.165 21.8647C125.897 20.7779 125.968 20.3605 126.062 16.297L126.157 11.879L125.354 11.6585C123.819 11.2726 123.559 11.8791 123.559 15.7221C123.559 17.6121 123.433 19.5336 123.236 19.9825C122.85 21.0693 121.127 22.093 119.78 22.093C118.403 22.093 116.616 21.2583 116.104 20.3684C115.915 19.9825 115.655 17.9349 115.561 15.6984C115.403 11.7294 115.403 11.6979 114.6 11.6034C114.152 11.5246 113.608 11.6822 113.388 11.9105Z" fill="white"/>
<path d="M202 4H21V5H202V4Z" fill="white"/>
<path d="M201.968 30.9999H21V31.9449H201.968V30.9999Z" fill="white"/>
</svg>
