<?xml version="1.0" standalone="no"?>
<!DOCTYPE svg PUBLIC "-//W3C//DTD SVG 20010904//EN"
 "http://www.w3.org/TR/2001/REC-SVG-20010904/DTD/svg10.dtd">
<svg version="1.0" xmlns="http://www.w3.org/2000/svg"
 width="1184.000000pt" height="1184.000000pt" viewBox="0 0 1184.000000 1184.000000"
 preserveAspectRatio="xMidYMid meet">
<metadata>
Created by potrace 1.14, written by Peter Selinger 2001-2017
</metadata>
<g transform="translate(0.000000,1184.000000) scale(0.100000,-0.100000)"
fill="#000000" stroke="none">
<path d="M1518 8780 c-39 -21 -51 -39 -193 -305 -21 -38 -50 -92 -65 -120 -15
-27 -55 -104 -90 -170 -35 -66 -80 -151 -100 -190 -21 -38 -61 -115 -90 -170
-29 -55 -57 -106 -62 -112 -6 -7 -7 -13 -3 -13 4 0 3 -6 -3 -12 -11 -14 -194
-372 -205 -401 -10 -27 44 -75 192 -172 69 -45 133 -85 141 -89 8 -4 32 -17
52 -29 165 -99 249 -147 257 -147 5 0 11 -4 13 -8 4 -11 206 -112 223 -112 16
0 181 84 309 159 49 28 93 51 97 51 5 0 9 5 9 10 0 6 4 10 10 10 5 0 34 16 64
35 30 19 58 35 61 35 3 0 18 9 33 19 15 10 72 48 128 84 115 75 164 117 164
142 0 25 -320 653 -525 1030 -18 33 -48 89 -67 125 -172 320 -175 325 -223
349 -52 26 -79 26 -127 1z"/>
<path d="M5117 7683 c-4 -3 -96 -7 -204 -9 -417 -5 -616 -17 -649 -38 -25 -17
-49 -87 -59 -176 -3 -30 -8 -67 -11 -82 -4 -29 -11 -139 -20 -318 -4 -108 -16
-761 -14 -824 0 -17 2 -32 4 -34 2 -2 0 -17 -4 -33 -5 -16 -5 -31 -1 -33 4 -3
4 -32 1 -66 -3 -34 -3 -63 1 -66 4 -2 3 -20 -1 -39 -4 -19 -4 -35 0 -35 5 0 5
-13 0 -30 -5 -17 -5 -30 0 -30 5 0 5 -13 0 -30 -5 -17 -5 -30 0 -30 5 0 5 -13
0 -30 -5 -17 -5 -30 0 -30 5 0 5 -13 0 -29 -4 -15 -4 -34 0 -42 5 -7 5 -20 0
-29 -5 -9 -5 -22 0 -30 5 -8 5 -21 0 -30 -5 -9 -5 -22 0 -30 5 -8 5 -21 0 -30
-5 -9 -5 -22 -1 -28 4 -7 5 -35 1 -62 -4 -27 -3 -55 1 -62 4 -6 4 -19 -1 -28
-5 -9 -5 -22 0 -30 5 -8 5 -21 0 -30 -5 -9 -5 -22 0 -30 4 -7 4 -24 0 -36 -6
-14 -5 -26 0 -29 5 -3 5 -18 0 -35 -5 -17 -5 -30 0 -30 5 0 5 -13 0 -30 -5
-17 -5 -30 0 -30 5 0 5 -13 0 -30 -5 -16 -6 -30 -2 -30 4 0 7 -16 7 -35 0 -19
-3 -35 -7 -35 -4 0 -3 -13 2 -30 5 -16 5 -30 0 -30 -4 0 -5 -12 -1 -27 4 -16
4 -44 1 -65 -4 -20 -4 -42 1 -49 4 -7 4 -20 -1 -29 -5 -9 -5 -22 0 -30 5 -8 5
-21 0 -30 -5 -9 -5 -22 0 -30 4 -7 4 -24 0 -36 -6 -14 -5 -26 0 -29 5 -3 5
-18 0 -35 -5 -17 -5 -30 0 -30 5 0 5 -13 0 -30 -5 -17 -5 -30 0 -30 5 0 5 -13
0 -30 -5 -16 -6 -30 -2 -30 4 0 7 -16 7 -35 0 -19 -3 -35 -7 -35 -4 0 -3 -13
2 -30 5 -19 5 -30 -1 -30 -6 0 -7 -5 -4 -11 4 -6 7 -25 7 -43 0 -32 1 -33 72
-50 39 -9 73 -16 76 -16 3 1 17 -3 31 -9 15 -5 46 -13 70 -16 24 -4 46 -8 49
-10 3 -2 21 -6 40 -9 19 -3 46 -8 60 -12 14 -3 41 -9 60 -14 19 -5 46 -11 60
-15 14 -4 57 -8 95 -10 59 -3 77 0 110 18 41 23 92 94 97 137 2 14 7 30 10 36
4 6 10 40 13 75 4 35 9 75 12 89 2 14 6 264 8 555 2 292 4 535 4 540 1 7 158
10 454 11 485 1 810 12 837 29 4 3 25 7 46 11 40 6 128 44 155 66 55 46 77
164 55 299 -14 87 -67 159 -148 200 -47 24 -167 57 -238 64 -30 4 -58 9 -62
11 -9 6 -17 8 -113 29 -125 28 -274 36 -685 38 l-305 2 2 191 c3 207 5 237 22
302 29 107 142 172 346 198 22 3 51 7 65 9 27 5 155 14 261 19 36 1 71 6 77
10 6 3 13 2 17 -4 4 -6 10 -8 15 -5 9 5 222 12 685 20 387 7 824 15 1058 19
115 2 211 7 214 9 3 3 16 2 29 -3 21 -8 24 -7 25 13 0 12 1 43 2 70 1 26 0 47
-3 47 -4 0 -4 114 0 130 1 3 1 55 0 115 0 61 -1 117 0 125 1 66 -1 94 -6 99
-5 5 -43 7 -211 10 -37 1 -42 4 -45 27 l-3 26 -460 4 c-253 3 -597 7 -765 9
-352 6 -317 5 -400 2 -36 -1 -73 1 -82 6 -10 4 -18 4 -18 0 0 -9 -124 -7 -146
1 -7 3 -16 1 -18 -3 -3 -5 -23 -5 -43 -2 -21 4 -53 4 -71 0 -18 -3 -35 -3 -38
2 -3 5 -9 7 -14 4 -5 -3 -38 -5 -72 -5 -35 0 -72 1 -83 0 -11 0 -33 0 -50 1
-16 1 -34 1 -40 0 -53 -4 -133 -3 -142 2 -5 4 -13 4 -16 0z"/>
<path d="M8468 7536 c-64 -17 -118 -59 -119 -94 -1 -15 -2 -40 -4 -57 -32
-284 -17 -2378 20 -2815 2 -30 7 -86 10 -125 9 -125 36 -248 66 -307 32 -63
141 -126 231 -134 91 -8 158 43 213 162 31 66 72 208 81 277 2 18 8 64 14 102
5 39 12 102 15 140 3 39 7 95 10 125 2 30 7 98 10 150 3 52 8 122 10 155 3 33
8 103 11 155 4 52 7 112 8 132 1 26 6 38 16 39 8 1 31 2 50 4 19 2 80 5 135 9
156 9 265 16 331 21 34 3 101 8 150 10 49 3 116 7 149 10 33 2 98 6 145 9 47
3 123 9 170 12 47 3 96 6 110 5 40 -1 47 10 54 87 3 39 9 105 13 145 18 175 3
276 -46 315 -64 51 -185 84 -346 96 -27 2 -81 7 -120 10 -68 6 -158 11 -360
21 -55 2 -154 7 -220 11 -66 4 -144 7 -172 8 -29 1 -53 3 -54 6 -1 3 -3 23 -4
45 -2 22 -6 76 -9 120 -4 44 -8 116 -10 160 -3 44 -7 118 -11 165 -6 93 -11
159 -20 295 -3 50 -8 122 -10 160 -8 114 -15 226 -19 288 -2 31 -5 60 -8 62
-3 3 -34 8 -69 11 -35 2 -91 7 -124 10 -127 12 -252 11 -297 0z"/>
<path d="M11348 7544 c-3 -2 -14 -6 -24 -8 -52 -11 -95 -39 -108 -71 -24 -58
-30 -292 -30 -1110 0 -916 14 -1574 39 -1840 3 -27 7 -75 10 -105 19 -203 51
-288 131 -343 29 -21 59 -37 68 -37 8 0 17 -4 20 -8 8 -13 73 -14 118 -1 23 6
63 25 89 42 102 66 130 191 145 652 7 216 11 2784 4 2796 -4 5 -38 12 -76 15
-38 2 -87 7 -109 10 -56 8 -272 14 -277 8z"/>
<path d="M537 6916 c-58 -58 -100 -135 -386 -701 -125 -248 -157 -329 -147
-368 7 -29 36 -42 63 -28 10 5 36 17 58 27 73 31 326 176 566 323 14 9 48 29
75 46 27 16 50 33 52 37 2 4 8 8 13 8 5 0 57 32 115 70 58 39 110 70 115 70 5
0 9 4 9 8 0 5 23 23 51 42 28 18 62 44 75 57 l25 25 -28 30 c-15 17 -48 44
-73 61 -25 17 -47 33 -50 36 -3 3 -25 20 -50 36 -25 17 -46 33 -48 38 -2 4
-10 7 -17 7 -8 0 -20 6 -27 13 -19 18 -173 108 -248 145 -96 46 -113 48 -143
18z"/>
<path d="M2519 6907 c-137 -57 -434 -235 -514 -309 -22 -21 -43 -38 -47 -38
-23 0 -2 -43 35 -73 57 -47 343 -237 357 -237 5 0 10 -4 10 -10 0 -5 5 -10 11
-10 6 0 25 -10 42 -22 35 -25 64 -44 87 -54 8 -4 38 -22 65 -40 88 -56 341
-202 434 -249 108 -55 147 -63 158 -32 4 12 6 25 5 28 0 4 -3 17 -6 30 -6 36
-49 137 -119 279 -34 69 -61 127 -62 130 0 3 -5 12 -10 20 -5 8 -33 62 -63
119 -29 58 -64 123 -76 145 -13 23 -38 68 -56 101 -82 148 -155 245 -184 245
-6 0 -36 -11 -67 -23z"/>
<path d="M1505 6314 c-303 -159 -515 -314 -515 -377 0 -14 9 -32 20 -40 33
-23 37 -56 44 -388 5 -189 32 -229 167 -248 79 -11 643 -11 724 0 92 12 136
44 152 109 6 25 11 127 14 275 3 160 13 221 40 251 32 35 24 66 -33 122 -29
29 -58 52 -64 52 -7 0 -14 4 -16 9 -3 9 -131 91 -217 139 -25 14 -59 33 -76
43 -63 37 -154 79 -172 79 -10 0 -41 -12 -68 -26z"/>
<path d="M1146 5043 c-1 -1 -29 -4 -61 -7 -91 -6 -121 -21 -156 -76 -54 -85
-11 -209 82 -238 118 -37 752 -48 1039 -18 104 11 130 19 160 49 16 17 30 36
30 43 0 7 4 14 10 16 18 6 22 81 6 118 -30 72 -65 97 -152 106 -53 5 -953 12
-958 7z"/>
<path d="M1002 4485 c-123 -137 -131 -178 -54 -258 48 -49 97 -79 136 -83 17
-2 47 -6 66 -9 44 -6 826 -7 860 -1 14 3 45 7 69 10 52 7 103 37 153 91 39 41
42 49 39 99 -1 29 -55 108 -105 155 l-24 23 -557 1 -556 2 -27 -30z"/>
<path d="M1445 3911 c-73 -29 -103 -53 -109 -84 -17 -82 -25 -436 -14 -592 6
-84 37 -122 123 -151 52 -18 172 -23 239 -11 65 12 119 48 141 92 18 37 20 61
19 300 0 355 -7 390 -94 435 -53 28 -247 35 -305 11z"/>
</g>
</svg>
