<svg width="26" height="26" viewBox="0 0 26 26" fill="none" xmlns="http://www.w3.org/2000/svg">
<circle cx="13" cy="13" r="13" fill="white"/>
<path d="M12.6699 5.86016C12.482 5.94648 12.3145 6.12422 12.2434 6.31211C12.2078 6.40859 12.1875 7.41406 12.1875 9.31836V12.1875L9.24727 12.1977C6.36289 12.2129 6.30195 12.2129 6.16484 12.3195C5.8957 12.5176 5.81445 12.6801 5.81445 13C5.81445 13.3199 5.8957 13.4824 6.16484 13.6805C6.30195 13.7871 6.36289 13.7871 9.24219 13.8023L12.1875 13.8125L12.1977 16.7578C12.2129 19.6371 12.2129 19.698 12.3195 19.8352C12.5176 20.1043 12.6801 20.1855 13 20.1855C13.3199 20.1855 13.4824 20.1043 13.6805 19.8352C13.7871 19.698 13.7871 19.6371 13.8023 16.7578L13.8125 13.8125L16.7578 13.8023C19.6371 13.7871 19.698 13.7871 19.8352 13.6805C20.1043 13.4824 20.1855 13.3199 20.1855 13C20.1855 12.6801 20.1043 12.5176 19.8352 12.3195C19.698 12.2129 19.6371 12.2129 16.7578 12.1977L13.8125 12.1875L13.8023 9.24219C13.7871 6.36289 13.7871 6.30195 13.6805 6.16484C13.6246 6.08867 13.518 5.97695 13.4469 5.92617C13.2742 5.79922 12.873 5.76367 12.6699 5.86016Z" fill="#0D0D0D"/>
</svg>
