<svg width="112" height="112" viewBox="0 0 112 112" fill="none" xmlns="http://www.w3.org/2000/svg">
<path d="M13.5434 92.5298C15.1029 99.6735 23.0173 103.27 29.7218 99.8536C31.185 99.109 33.5422 96.7026 34.2617 95.2159C35.8966 91.8052 35.893 88.593 34.294 85.186C31.096 78.4594 21.8948 76.9402 16.5909 82.2343C13.8189 85.0126 12.7087 88.7286 13.5434 92.5298Z" fill="white"/>
<path d="M45.5019 60.6313C45.8533 62.2697 46.9045 64.3007 48.0641 65.6105C51.5649 69.5835 57.8591 70.4067 62.3572 67.4954C68.3183 63.6209 69.1829 55.3163 64.1295 50.3399C61.8544 48.1136 59.4715 47.133 56.303 47.1366C53.1565 47.162 50.6884 48.17 48.5494 50.3139C45.7555 53.1141 44.6672 56.8082 45.5019 60.6313Z" fill="white"/>
<path d="M13.4715 28.7757C14.3282 32.708 17.7847 36.2222 21.6753 37.1137C23.1179 37.4398 25.7619 37.3931 27.2474 37.0199C35.0897 34.957 38.0502 24.9675 32.5804 18.9208C28.9485 14.8606 22.6543 14.0592 18.1782 17.0579C15.7545 18.6777 14.0529 21.1707 13.4661 23.9684C13.0748 25.7825 13.0762 26.9843 13.4715 28.7757Z" fill="white"/>
<path d="M13.3837 60.2742C13.4937 60.9296 13.9322 62.1528 14.3483 63.0045C16.2976 67.0011 19.862 69.2478 24.276 69.2428C27.5537 69.2391 29.8907 68.2749 32.1825 65.9779C35.6311 62.4996 36.3903 57.5822 34.1564 53.0614C33.4336 51.5982 31.1146 49.219 29.606 48.4341C26.4575 46.7551 22.3931 46.7378 19.0735 48.4242C17.6322 49.1469 15.624 51.0284 14.8171 52.4497C13.4867 54.7238 12.9439 57.7836 13.3837 60.2742Z" fill="white"/>
<path d="M45.34 28.1499C45.9558 31.6892 48.3193 34.7894 51.5769 36.3372C53.1511 37.0565 54.3313 37.2955 56.4072 37.315C61.4986 37.3092 65.7777 33.9392 67.0831 28.89C68.4971 23.3163 65.1252 17.3765 59.573 15.6784C58.021 15.1994 55.2676 15.1151 53.6292 15.4885C48.1459 16.7621 44.3503 22.5352 45.34 28.1499Z" fill="white"/>
<path d="M77.527 28.5507C78.23 31.8058 80.484 34.7314 83.3044 36.1267C85.1191 37.0205 86.2775 37.2596 88.4627 37.2789C98.2522 37.2897 103.133 25.3969 96.1986 18.456C93.9454 16.2078 91.5405 15.2054 88.4376 15.2089C86.2525 15.2333 85.0947 15.4749 83.282 16.3729C80.3992 17.7965 78.1955 20.7271 77.5001 24.0712C77.1089 25.929 77.1097 26.6938 77.527 28.5507Z" fill="white"/>
</svg>
